<?xml version="1.0" encoding="UTF-8" standalone="no"?>
<!DOCTYPE svg PUBLIC "-//W3C//DTD SVG 1.1//EN" "http://www.w3.org/Graphics/SVG/1.1/DTD/svg11.dtd">
<svg xmlns="http://www.w3.org/2000/svg" version="1.1" viewBox="0.00 0.00 1024.00 1024.00">
<path fill="#dedddb" d="
  M 1024.00 0.00
  L 1024.00 1024.00
  L 0.00 1024.00
  L 0.00 0.00
  L 1024.00 0.00
  Z
  M 176.69 837.57
  L 177.52 840.51
  L 178.52 843.32
  L 179.73 846.09
  L 181.12 848.71
  L 182.69 851.20
  L 184.42 853.53
  L 186.30 855.71
  L 188.33 857.72
  L 191.42 860.27
  L 194.77 862.48
  L 198.34 864.34
  L 202.13 865.84
  L 206.10 866.96
  L 210.24 867.70
  L 214.42 868.05
  L 218.72 868.01
  L 229.14 878.41
  L 239.36 888.96
  L 245.85 895.35
  L 252.63 901.19
  L 259.69 906.48
  L 267.04 911.22
  L 272.11 914.18
  L 283.48 920.37
  L 306.03 931.80
  L 329.53 943.24
  L 343.89 950.31
  L 364.34 961.22
  L 368.89 963.61
  L 373.52 965.80
  L 378.21 967.79
  L 382.98 969.56
  L 382.98 969.56
  L 389.14 971.52
  L 395.41 973.15
  L 401.79 974.45
  L 408.29 975.42
  L 447.86 980.44
  L 480.41 984.92
  L 489.85 985.93
  L 498.63 986.22
  L 508.27 985.96
  L 518.21 985.45
  L 528.60 984.71
  L 539.43 983.71
  L 562.86 980.96
  L 592.21 976.78
  L 605.93 974.49
  L 619.66 971.75
  L 633.39 968.55
  L 647.13 964.90
  L 658.41 961.45
  L 669.12 957.62
  L 679.24 953.42
  L 688.79 948.84
  L 713.47 935.94
  L 732.84 925.20
  L 749.98 914.91
  L 757.82 909.87
  L 765.29 904.83
  L 769.19 901.95
  L 772.97 898.80
  L 777.08 894.97
  L 779.88 891.90
  L 789.97 879.61
  L 800.60 867.16
  L 810.38 867.04
  L 817.01 866.56
  L 820.58 865.95
  L 823.99 865.08
  L 827.32 863.93
  L 830.46 862.52
  L 833.43 860.87
  L 836.19 858.99
  L 838.82 856.84
  L 841.21 854.47
  L 844.34 850.61
  L 846.91 846.36
  L 848.92 841.78
  L 850.33 836.91
  L 851.12 831.87
  L 851.29 826.65
  L 850.82 821.40
  L 849.71 816.07
  L 854.99 811.74
  L 860.55 806.37
  L 866.49 800.10
  L 872.24 793.70
  L 877.80 787.19
  L 883.17 780.56
  L 888.35 773.81
  L 893.35 766.95
  L 898.15 759.96
  L 902.77 752.85
  L 902.77 752.85
  L 902.77 752.85
  L 902.77 752.85
  L 909.64 741.45
  L 916.04 729.76
  L 937.51 688.30
  L 941.68 679.61
  L 944.70 672.35
  L 947.53 664.57
  L 950.42 655.65
  L 954.35 642.56
  L 960.33 623.48
  L 967.44 601.18
  L 969.77 591.17
  L 971.69 580.35
  L 973.21 568.72
  L 974.33 556.27
  L 975.57 537.29
  L 976.38 521.29
  L 976.81 506.83
  L 976.87 493.56
  L 976.58 480.92
  L 975.90 468.86
  L 974.84 457.40
  L 973.39 446.34
  L 971.22 434.06
  L 968.47 421.82
  L 965.14 409.64
  L 961.23 397.51
  L 946.59 355.78
  L 943.06 346.30
  L 938.62 335.18
  L 926.96 307.97
  L 922.84 299.12
  L 918.53 290.80
  L 911.87 279.38
  L 904.07 267.58
  L 880.51 234.17
  L 860.24 206.39
  L 854.83 199.57
  L 847.91 191.59
  L 837.55 180.34
  L 827.16 169.64
  L 816.74 159.50
  L 806.28 149.91
  L 805.74 149.43
  L 790.96 136.61
  L 785.45 132.24
  L 780.06 128.30
  L 778.15 126.98
  L 770.89 122.42
  L 759.80 116.08
  L 753.26 112.37
  L 744.53 107.04
  L 732.22 99.00
  L 718.09 89.83
  L 707.75 83.86
  L 696.90 78.48
  L 685.53 73.69
  L 673.66 69.49
  L 645.31 60.57
  L 622.40 53.81
  L 607.09 49.71
  L 593.53 46.53
  L 581.04 44.10
  L 569.41 42.38
  L 558.23 41.31
  L 547.46 40.92
  L 537.12 41.19
  L 527.07 42.14
  L 508.00 44.43
  L 495.74 45.42
  L 474.62 46.32
  L 462.77 47.01
  L 454.40 47.89
  L 445.71 49.24
  L 436.70 51.04
  L 427.36 53.31
  L 400.78 60.40
  L 379.65 66.24
  L 368.71 69.68
  L 356.15 74.29
  L 341.87 80.08
  L 323.64 87.96
  L 314.72 92.20
  L 304.89 97.44
  L 294.13 103.70
  L 282.45 110.97
  L 271.18 118.31
  L 260.48 125.54
  L 250.35 132.64
  L 240.78 139.62
  L 215.52 158.98
  L 206.87 165.89
  L 200.15 171.75
  L 189.77 181.90
  L 179.05 193.52
  L 167.85 206.72
  L 155.68 222.10
  L 136.01 247.97
  L 122.57 266.39
  L 110.96 283.10
  L 103.37 294.63
  L 97.08 305.12
  L 91.79 315.13
  L 87.04 325.53
  L 76.82 350.08
  L 67.28 373.89
  L 64.68 380.80
  L 62.29 387.76
  L 60.12 394.78
  L 58.15 401.85
  L 55.60 412.57
  L 53.52 423.42
  L 51.92 434.39
  L 50.80 445.48
  L 47.06 488.66
  L 46.06 500.19
  L 45.68 508.57
  L 45.84 521.06
  L 46.52 533.44
  L 47.72 545.68
  L 49.45 557.81
  L 56.83 600.22
  L 60.41 619.91
  L 62.27 628.40
  L 64.41 636.80
  L 66.81 645.11
  L 69.49 653.32
  L 69.49 653.32
  L 69.49 653.32
  L 69.49 653.32
  L 73.14 663.25
  L 77.21 673.05
  L 81.68 682.70
  L 86.56 692.21
  L 90.73 699.45
  L 97.34 710.07
  L 104.62 721.84
  L 115.62 740.07
  L 127.60 759.22
  L 133.58 769.10
  L 140.96 782.35
  L 147.18 793.57
  L 151.24 800.29
  L 154.45 804.67
  L 158.29 809.27
  L 161.96 814.00
  L 165.99 819.63
  L 169.79 825.44
  L 173.36 831.42
  L 176.69 837.57
  Z"
/>
<path fill="#e9e8e6" d="
  M 849.71 816.07
  L 847.87 811.20
  L 845.57 806.80
  L 842.76 802.79
  L 839.52 799.27
  L 836.60 796.78
  L 833.43 794.61
  L 829.95 792.72
  L 826.25 791.18
  L 822.33 789.98
  L 818.22 789.12
  L 813.95 788.61
  L 809.53 788.45
  L 780.06 788.70
  L 779.75 789.01
  L 779.75 866.49
  L 779.89 866.84
  L 780.24 866.98
  L 800.60 867.16
  L 789.97 879.61
  L 779.88 891.90
  L 777.08 894.97
  L 772.97 898.80
  L 769.19 901.95
  L 765.29 904.83
  L 757.82 909.87
  L 749.98 914.91
  L 732.84 925.20
  L 713.47 935.94
  L 688.79 948.84
  L 679.24 953.42
  L 669.12 957.62
  L 658.41 961.45
  L 647.13 964.90
  L 633.39 968.55
  L 619.66 971.75
  L 605.93 974.49
  L 592.21 976.78
  L 562.86 980.96
  L 539.43 983.71
  L 528.60 984.71
  L 518.21 985.45
  L 508.27 985.96
  L 498.63 986.22
  L 489.85 985.93
  L 480.41 984.92
  L 447.86 980.44
  L 408.29 975.42
  L 401.79 974.45
  L 395.41 973.15
  L 389.14 971.52
  L 382.98 969.56
  L 382.98 969.56
  L 382.98 969.56
  L 378.21 967.79
  L 373.52 965.80
  L 368.89 963.61
  L 364.34 961.22
  L 343.89 950.31
  L 329.53 943.24
  L 306.03 931.80
  L 283.48 920.37
  L 272.11 914.18
  L 267.04 911.22
  L 259.69 906.48
  L 252.63 901.19
  L 245.85 895.35
  L 239.36 888.96
  L 229.14 878.41
  L 218.72 868.01
  L 222.63 867.48
  L 226.45 866.70
  L 230.17 865.68
  L 233.80 864.42
  L 233.80 864.42
  L 237.58 862.80
  L 241.25 860.91
  L 244.82 858.74
  L 248.28 856.29
  L 249.07 855.46
  L 249.07 855.46
  L 249.54 854.45
  L 249.71 853.24
  L 249.87 827.33
  L 249.69 826.90
  L 249.27 826.72
  L 249.27 826.72
  L 220.15 826.72
  L 219.90 826.80
  L 219.81 827.07
  L 219.81 835.49
  L 220.13 835.82
  L 220.13 835.82
  L 239.03 835.82
  L 239.40 835.98
  L 239.56 836.35
  L 239.56 849.47
  L 239.36 850.29
  L 238.79 850.92
  L 235.02 853.21
  L 230.97 855.14
  L 226.81 856.63
  L 222.52 857.67
  L 218.30 858.21
  L 214.29 858.25
  L 210.32 857.79
  L 206.65 856.85
  L 203.12 855.45
  L 199.92 853.71
  L 196.97 851.59
  L 194.38 849.17
  L 191.86 846.09
  L 189.82 842.72
  L 188.21 838.99
  L 187.10 835.04
  L 186.49 830.92
  L 186.41 826.67
  L 186.84 822.34
  L 187.79 817.99
  L 188.92 814.63
  L 190.36 811.56
  L 192.11 808.78
  L 194.16 806.28
  L 196.83 803.83
  L 199.88 801.73
  L 203.31 799.99
  L 207.13 798.62
  L 210.62 797.76
  L 214.13 797.27
  L 217.62 797.16
  L 221.05 797.42
  L 224.33 798.06
  L 227.50 799.07
  L 230.42 800.43
  L 233.18 802.16
  L 236.57 805.10
  L 239.40 808.57
  L 239.42 808.60
  L 240.02 808.96
  L 240.70 808.77
  L 248.05 803.04
  L 248.34 802.52
  L 248.19 801.95
  L 245.84 799.21
  L 243.72 797.15
  L 241.47 795.29
  L 239.00 793.57
  L 236.42 792.06
  L 233.72 790.75
  L 230.93 789.65
  L 227.97 788.74
  L 224.94 788.04
  L 221.82 787.56
  L 218.66 787.31
  L 215.49 787.28
  L 212.32 787.48
  L 209.17 787.89
  L 206.06 788.53
  L 202.99 789.39
  L 200.00 790.46
  L 196.16 792.23
  L 192.64 794.32
  L 189.37 796.78
  L 186.45 799.52
  L 183.30 803.28
  L 180.70 807.40
  L 178.59 811.92
  L 177.06 816.69
  L 176.09 821.73
  L 175.70 826.92
  L 175.90 832.22
  L 176.69 837.57
  L 173.36 831.42
  L 169.79 825.44
  L 165.99 819.63
  L 161.96 814.00
  L 158.29 809.27
  L 154.45 804.67
  L 151.24 800.29
  L 147.18 793.57
  L 140.96 782.35
  L 133.58 769.10
  L 127.60 759.22
  L 115.62 740.07
  L 104.62 721.84
  L 97.34 710.07
  L 90.73 699.45
  L 86.56 692.21
  L 81.68 682.70
  L 77.21 673.05
  L 73.14 663.25
  L 69.49 653.32
  L 69.49 653.32
  L 69.49 653.32
  L 66.81 645.11
  L 64.41 636.80
  L 62.27 628.40
  L 60.41 619.91
  L 56.83 600.22
  L 49.45 557.81
  L 47.72 545.68
  L 46.52 533.44
  L 45.84 521.06
  L 45.68 508.57
  L 46.06 500.19
  L 47.06 488.66
  L 50.80 445.48
  L 51.92 434.39
  L 53.52 423.42
  L 55.60 412.57
  L 58.15 401.85
  L 60.12 394.78
  L 62.29 387.76
  L 64.68 380.80
  L 67.28 373.89
  L 76.82 350.08
  L 87.04 325.53
  L 91.79 315.13
  L 97.08 305.12
  L 103.37 294.63
  L 110.96 283.10
  L 122.57 266.39
  L 136.01 247.97
  L 155.68 222.10
  L 167.85 206.72
  L 179.05 193.52
  L 189.77 181.90
  L 200.15 171.75
  L 206.87 165.89
  L 215.52 158.98
  L 240.78 139.62
  L 250.35 132.64
  L 260.48 125.54
  L 271.18 118.31
  L 282.45 110.97
  L 294.13 103.70
  L 304.89 97.44
  L 314.72 92.20
  L 323.64 87.96
  L 341.87 80.08
  L 356.15 74.29
  L 368.71 69.68
  L 379.65 66.24
  L 400.78 60.40
  L 427.36 53.31
  L 436.70 51.04
  L 445.71 49.24
  L 454.40 47.89
  L 462.77 47.01
  L 474.62 46.32
  L 495.74 45.42
  L 508.00 44.43
  L 527.07 42.14
  L 537.12 41.19
  L 547.46 40.92
  L 558.23 41.31
  L 569.41 42.38
  L 581.04 44.10
  L 593.53 46.53
  L 607.09 49.71
  L 622.40 53.81
  L 645.31 60.57
  L 673.66 69.49
  L 685.53 73.69
  L 696.90 78.48
  L 707.75 83.86
  L 718.09 89.83
  L 732.22 99.00
  L 744.53 107.04
  L 753.26 112.37
  L 759.80 116.08
  L 770.89 122.42
  L 778.15 126.98
  L 780.06 128.30
  L 785.45 132.24
  L 790.96 136.61
  L 805.74 149.43
  L 806.28 149.91
  L 816.74 159.50
  L 827.16 169.64
  L 837.55 180.34
  L 847.91 191.59
  L 854.83 199.57
  L 860.24 206.39
  L 880.51 234.17
  L 904.07 267.58
  L 911.87 279.38
  L 918.53 290.80
  L 922.84 299.12
  L 926.96 307.97
  L 938.62 335.18
  L 943.06 346.30
  L 946.59 355.78
  L 961.23 397.51
  L 965.14 409.64
  L 968.47 421.82
  L 971.22 434.06
  L 973.39 446.34
  L 974.84 457.40
  L 975.90 468.86
  L 976.58 480.92
  L 976.87 493.56
  L 976.81 506.83
  L 976.38 521.29
  L 975.57 537.29
  L 974.33 556.27
  L 973.21 568.72
  L 971.69 580.35
  L 969.77 591.17
  L 967.44 601.18
  L 960.33 623.48
  L 954.35 642.56
  L 950.42 655.65
  L 947.53 664.57
  L 944.70 672.35
  L 941.68 679.61
  L 937.51 688.30
  L 916.04 729.76
  L 909.64 741.45
  L 902.77 752.85
  L 902.77 752.85
  L 902.77 752.85
  L 898.15 759.96
  L 893.35 766.95
  L 888.35 773.81
  L 883.17 780.56
  L 877.80 787.19
  L 872.24 793.70
  L 866.49 800.10
  L 860.55 806.37
  L 854.99 811.74
  L 849.71 816.07
  Z
  M 255.00 362.24
  L 253.17 368.72
  L 251.12 375.07
  L 248.83 381.29
  L 246.32 387.39
  L 242.71 394.84
  L 236.87 405.47
  L 232.64 413.11
  L 230.04 418.18
  L 226.67 425.95
  L 223.96 433.74
  L 221.92 441.56
  L 220.55 449.40
  L 220.02 453.78
  L 219.31 462.36
  L 218.97 471.43
  L 218.96 481.59
  L 219.27 496.61
  L 219.30 497.90
  L 220.02 519.14
  L 221.03 536.51
  L 222.27 548.55
  L 224.12 560.13
  L 226.60 571.25
  L 229.69 581.90
  L 234.02 595.83
  L 236.85 606.57
  L 166.90 611.86
  L 166.85 611.87
  L 166.90 611.88
  L 166.96 611.90
  L 167.07 611.95
  L 263.78 612.75
  L 268.37 621.74
  L 272.02 627.97
  L 283.11 645.02
  L 284.78 647.92
  L 286.26 651.05
  L 287.54 654.42
  L 288.63 658.02
  L 288.85 658.39
  L 289.25 658.52
  L 292.78 658.64
  L 274.24 658.64
  L 273.81 658.82
  L 273.63 659.24
  L 273.63 659.24
  L 273.63 761.92
  L 273.94 762.29
  L 274.01 762.30
  L 287.66 762.30
  L 288.00 762.19
  L 288.11 761.85
  L 288.11 722.63
  L 288.29 722.19
  L 288.72 722.01
  L 288.72 722.01
  L 310.98 722.01
  L 311.93 722.23
  L 312.65 722.90
  L 339.26 762.12
  L 339.59 762.30
  L 351.94 762.36
  L 362.00 766.39
  L 371.70 770.81
  L 381.04 775.63
  L 390.01 780.85
  L 390.30 781.03
  L 390.30 781.03
  L 390.30 781.03
  L 395.92 784.93
  L 401.18 789.42
  L 406.08 794.49
  L 410.62 800.14
  L 410.62 831.77
  L 410.50 837.38
  L 410.18 841.95
  L 409.67 845.50
  L 408.95 848.01
  L 407.57 850.70
  L 405.79 853.00
  L 405.79 853.00
  L 405.79 853.00
  L 403.52 854.96
  L 400.83 856.50
  L 397.70 857.64
  L 394.13 858.36
  L 391.36 858.59
  L 388.44 858.52
  L 385.54 858.14
  L 382.88 857.49
  L 380.42 856.57
  L 378.32 855.44
  L 376.50 854.09
  L 374.94 852.46
  L 373.65 850.67
  L 372.59 848.83
  L 371.76 846.92
  L 371.15 844.97
  L 371.15 844.97
  L 371.15 844.97
  L 370.76 842.87
  L 370.61 840.72
  L 370.48 817.89
  L 370.60 789.18
  L 370.41 788.72
  L 369.95 788.52
  L 369.95 788.52
  L 360.55 788.52
  L 360.06 788.68
  L 359.89 789.19
  L 359.80 834.58
  L 360.02 840.71
  L 360.77 846.01
  L 361.93 850.25
  L 363.54 854.05
  L 365.58 857.40
  L 368.07 860.31
  L 368.07 860.31
  L 368.07 860.31
  L 370.80 862.62
  L 373.91 864.54
  L 377.42 866.06
  L 381.31 867.20
  L 385.90 867.96
  L 390.63 868.19
  L 395.50 867.87
  L 400.52 867.01
  L 403.19 866.27
  L 405.68 865.30
  L 408.07 864.07
  L 410.26 862.62
  L 412.75 860.50
  L 414.92 858.08
  L 416.82 855.33
  L 418.38 852.33
  L 419.63 849.04
  L 420.53 845.57
  L 421.07 841.96
  L 421.25 838.25
  L 421.23 790.72
  L 425.62 791.36
  L 429.20 792.25
  L 431.31 793.09
  L 433.16 794.17
  L 435.68 796.41
  L 437.77 799.33
  L 439.52 802.99
  L 441.23 808.02
  L 441.40 866.71
  L 441.56 867.08
  L 441.94 867.24
  L 451.29 867.24
  L 451.55 867.13
  L 451.66 866.87
  L 451.66 835.96
  L 451.76 835.66
  L 452.08 835.55
  L 469.22 835.55
  L 470.07 835.77
  L 470.70 836.36
  L 489.79 866.72
  L 490.15 866.92
  L 501.61 866.92
  L 501.76 866.90
  L 502.09 866.57
  L 502.03 866.11
  L 481.10 835.25
  L 480.99 834.84
  L 481.33 834.58
  L 484.64 833.34
  L 487.55 831.97
  L 490.05 830.48
  L 492.15 828.86
  L 494.27 826.78
  L 496.06 824.57
  L 497.53 822.24
  L 498.68 819.78
  L 498.68 819.78
  L 499.70 816.26
  L 500.14 812.52
  L 499.98 808.55
  L 499.24 804.35
  L 503.86 802.45
  L 508.60 801.05
  L 511.65 800.42
  L 514.75 799.98
  L 514.56 866.72
  L 514.68 867.07
  L 515.03 867.19
  L 524.53 867.19
  L 524.89 867.07
  L 525.01 866.72
  L 525.22 808.48
  L 525.31 808.11
  L 525.58 808.39
  L 550.81 851.65
  L 551.17 852.01
  L 551.64 852.13
  L 556.84 852.13
  L 557.21 852.04
  L 557.51 851.74
  L 582.59 808.29
  L 583.20 807.63
  L 583.41 808.51
  L 583.41 866.61
  L 583.55 867.02
  L 583.97 867.16
  L 592.96 867.16
  L 593.44 867.00
  L 593.60 866.52
  L 593.60 789.04
  L 593.45 788.67
  L 593.08 788.51
  L 583.31 788.51
  L 582.78 788.66
  L 582.39 789.05
  L 554.78 839.25
  L 554.38 839.61
  L 553.98 839.25
  L 533.79 803.73
  L 539.53 801.71
  L 545.09 799.29
  L 545.09 799.29
  L 547.18 798.26
  L 548.80 797.25
  L 550.72 795.65
  L 552.47 794.18
  L 553.92 793.22
  L 557.89 791.57
  L 565.45 789.35
  L 572.02 787.49
  L 577.13 785.64
  L 582.31 783.08
  L 587.53 779.79
  L 592.82 775.79
  L 600.49 769.30
  L 607.93 762.57
  L 643.00 762.57
  L 643.35 762.42
  L 643.49 762.07
  L 643.49 750.46
  L 643.35 750.02
  L 642.91 749.87
  L 634.73 749.74
  L 636.16 747.70
  L 637.75 745.81
  L 640.31 743.33
  L 643.19 741.14
  L 646.52 738.91
  L 653.58 734.01
  L 660.82 729.26
  L 663.43 735.15
  L 666.50 740.53
  L 670.04 745.38
  L 674.04 749.71
  L 676.53 751.95
  L 679.16 754.03
  L 681.90 755.93
  L 684.75 757.65
  L 687.75 759.20
  L 690.84 760.56
  L 694.00 761.72
  L 697.23 762.68
  L 700.47 763.42
  L 703.75 763.95
  L 707.06 764.26
  L 710.39 764.36
  L 713.69 764.24
  L 717.00 763.89
  L 720.18 763.34
  L 723.35 762.57
  L 726.69 761.51
  L 729.91 760.25
  L 733.01 758.78
  L 735.98 757.11
  L 735.98 757.11
  L 740.89 753.67
  L 745.41 749.60
  L 749.55 744.89
  L 753.30 739.55
  L 753.37 739.27
  L 753.20 739.04
  L 743.76 732.56
  L 743.33 732.42
  L 742.90 732.59
  L 742.39 733.05
  L 741.06 734.70
  L 745.47 726.50
  L 748.85 721.00
  L 761.02 703.29
  L 770.71 688.99
  L 773.96 684.64
  L 777.60 680.68
  L 777.60 680.68
  L 780.42 678.10
  L 783.44 675.72
  L 786.66 673.54
  L 790.07 671.55
  L 797.24 671.68
  L 797.24 671.68
  L 797.63 671.84
  L 797.79 672.24
  L 797.79 761.93
  L 797.93 762.26
  L 798.26 762.40
  L 811.41 762.40
  L 811.66 762.29
  L 811.76 762.04
  L 811.76 671.90
  L 811.86 671.60
  L 812.16 671.50
  L 846.73 671.50
  L 847.06 671.37
  L 847.19 671.04
  L 847.19 658.93
  L 847.19 658.93
  L 847.07 658.65
  L 846.79 658.54
  L 814.79 658.68
  L 817.84 658.43
  L 819.74 658.53
  L 820.78 658.59
  L 821.59 658.30
  L 821.87 658.07
  L 826.36 653.07
  L 830.43 647.65
  L 834.07 641.80
  L 837.30 635.53
  L 839.26 630.57
  L 840.38 625.85
  L 840.61 623.64
  L 840.64 621.43
  L 840.45 619.32
  L 840.05 617.21
  L 839.27 614.72
  L 838.14 612.25
  L 859.21 611.94
  L 859.23 611.93
  L 859.21 611.88
  L 785.98 606.80
  L 792.10 594.69
  L 796.15 585.61
  L 797.79 581.02
  L 799.46 575.40
  L 801.16 568.77
  L 802.89 561.11
  L 805.57 541.30
  L 810.06 503.40
  L 811.42 489.85
  L 812.20 479.90
  L 812.41 472.04
  L 812.11 464.09
  L 811.30 456.04
  L 809.98 447.90
  L 807.19 434.95
  L 803.91 422.60
  L 800.14 410.87
  L 795.88 399.74
  L 792.14 391.38
  L 787.45 382.36
  L 780.33 370.13
  L 778.01 366.21
  L 775.89 361.87
  L 774.36 357.05
  L 773.43 351.73
  L 773.10 345.93
  L 774.98 337.48
  L 776.14 329.08
  L 776.57 320.75
  L 776.27 312.47
  L 776.27 312.47
  L 775.49 305.79
  L 774.23 299.14
  L 772.50 292.53
  L 770.28 285.96
  L 768.07 280.51
  L 765.58 275.24
  L 762.83 270.15
  L 759.80 265.24
  L 759.80 265.24
  L 757.17 261.42
  L 754.36 257.72
  L 751.38 254.13
  L 748.22 250.65
  L 744.88 247.29
  L 741.37 244.05
  L 737.68 240.92
  L 733.82 237.91
  L 728.74 234.33
  L 723.52 231.07
  L 718.16 228.14
  L 712.65 225.54
  L 712.65 225.54
  L 712.65 225.54
  L 712.65 225.54
  L 704.72 222.45
  L 696.51 220.00
  L 688.02 218.19
  L 679.25 217.02
  L 671.33 216.54
  L 663.53 216.64
  L 655.85 217.31
  L 648.28 218.55
  L 648.28 218.55
  L 648.28 218.55
  L 648.28 218.55
  L 643.31 219.70
  L 638.38 221.10
  L 633.51 222.76
  L 628.69 224.67
  L 617.50 230.20
  L 617.15 230.25
  L 616.92 229.97
  L 615.07 225.07
  L 613.05 220.32
  L 610.84 215.72
  L 608.46 211.28
  L 605.90 206.98
  L 603.16 202.83
  L 600.24 198.83
  L 597.15 194.99
  L 597.15 194.99
  L 597.15 194.99
  L 592.20 189.52
  L 586.85 184.39
  L 581.10 179.60
  L 574.96 175.14
  L 569.20 171.49
  L 563.29 168.25
  L 557.24 165.41
  L 551.04 162.98
  L 551.04 162.98
  L 551.04 162.98
  L 543.71 160.68
  L 536.18 158.92
  L 528.45 157.70
  L 520.54 157.02
  L 511.45 156.88
  L 502.52 157.38
  L 493.75 158.53
  L 485.14 160.34
  L 485.14 160.34
  L 485.14 160.34
  L 485.14 160.34
  L 477.40 162.55
  L 469.80 165.31
  L 462.33 168.61
  L 455.00 172.46
  L 449.00 176.08
  L 443.23 180.01
  L 437.98 184.02
  L 432.94 188.30
  L 428.10 192.86
  L 423.46 197.71
  L 419.03 202.83
  L 414.79 208.23
  L 410.76 213.92
  L 406.93 219.88
  L 406.64 220.14
  L 406.26 220.12
  L 398.55 217.23
  L 395.31 216.14
  L 391.56 215.15
  L 382.54 213.51
  L 373.14 212.49
  L 363.78 212.11
  L 354.59 212.37
  L 345.50 213.29
  L 336.67 214.83
  L 327.99 217.02
  L 319.59 219.82
  L 311.38 223.27
  L 304.15 226.95
  L 297.11 231.17
  L 293.06 233.96
  L 289.13 236.98
  L 285.32 240.25
  L 281.64 243.76
  L 277.97 247.59
  L 274.51 251.52
  L 271.27 255.55
  L 268.23 259.67
  L 265.41 263.89
  L 262.80 268.21
  L 260.40 272.62
  L 258.21 277.13
  L 258.21 277.13
  L 258.21 277.13
  L 256.12 282.02
  L 254.27 287.01
  L 252.66 292.11
  L 251.28 297.32
  L 250.15 302.64
  L 249.25 308.06
  L 248.58 313.60
  L 248.16 319.24
  L 248.02 325.58
  L 248.02 325.58
  L 248.16 330.17
  L 248.51 334.75
  L 249.07 339.34
  L 249.84 343.92
  L 250.82 348.51
  L 252.01 353.09
  L 255.00 362.24
  Z
  M 194.60 724.74
  L 220.29 724.74
  L 225.28 724.38
  L 230.13 723.41
  L 234.77 721.86
  L 239.12 719.75
  L 243.00 717.17
  L 246.47 714.10
  L 249.39 710.66
  L 251.78 706.79
  L 253.19 703.68
  L 254.25 700.35
  L 255.05 696.35
  L 255.40 692.31
  L 255.30 688.30
  L 254.73 684.35
  L 253.73 680.59
  L 252.27 676.99
  L 250.41 673.67
  L 248.12 670.59
  L 246.33 668.66
  L 244.34 666.87
  L 241.96 665.06
  L 239.49 663.48
  L 236.94 662.12
  L 234.30 660.99
  L 234.30 660.99
  L 234.30 660.99
  L 230.93 659.90
  L 228.21 659.33
  L 224.90 658.94
  L 216.46 658.64
  L 180.08 658.63
  L 179.80 658.75
  L 179.68 659.03
  L 179.68 762.08
  L 179.89 762.30
  L 193.22 762.30
  L 193.66 762.16
  L 193.80 761.72
  L 193.80 725.54
  L 194.00 724.94
  L 194.60 724.74
  Z
  M 344.5217 830.0193
  L 344.5521 826.0497
  L 344.1864 822.0955
  L 343.4283 818.1948
  L 342.2849 814.3851
  L 340.7673 810.7032
  L 338.8902 807.1845
  L 336.6715 803.8629
  L 334.1327 800.7703
  L 331.2983 797.9367
  L 328.1954 795.3892
  L 324.8540 793.1523
  L 321.3064 791.2477
  L 317.5865 789.6937
  L 313.7303 788.5053
  L 309.7749 787.6938
  L 305.7585 787.2671
  L 301.7196 787.2293
  L 297.6971 787.5808
  L 293.7299 788.3182
  L 289.8561 789.4343
  L 286.1130 790.9185
  L 282.5367 792.7565
  L 279.1616 794.9305
  L 276.0202 797.4196
  L 273.1428 800.1998
  L 270.5571 803.2444
  L 268.2879 806.5241
  L 266.3572 810.0071
  L 264.7836 813.6601
  L 263.5821 817.4479
  L 262.7643 821.3339
  L 262.3383 825.2807
  L 262.3383 825.2807
  L 262.3079 829.2503
  L 262.6736 833.2045
  L 263.4317 837.1052
  L 264.5751 840.9149
  L 266.0927 844.5968
  L 267.9698 848.1155
  L 270.1885 851.4371
  L 272.7273 854.5297
  L 275.5617 857.3633
  L 278.6646 859.9108
  L 282.0060 862.1477
  L 285.5536 864.0523
  L 289.2735 865.6063
  L 293.1297 866.7947
  L 297.0851 867.6062
  L 301.1015 868.0329
  L 305.1404 868.0707
  L 309.1629 867.7192
  L 313.1301 866.9818
  L 317.0039 865.8657
  L 320.7470 864.3815
  L 324.3233 862.5435
  L 327.6984 860.3695
  L 330.8398 857.8804
  L 333.7172 855.1002
  L 336.3029 852.0556
  L 338.5721 848.7759
  L 340.5028 845.2929
  L 342.0764 841.6399
  L 343.2779 837.8521
  L 344.0957 833.9661
  L 344.5217 830.0193
  Z
  M 615.63 867.02
  L 615.93 866.83
  L 615.94 866.81
  L 624.48 846.96
  L 624.49 846.95
  L 624.79 846.75
  L 662.39 846.75
  L 662.70 846.95
  L 671.36 866.96
  L 671.67 867.16
  L 682.26 867.16
  L 682.55 867.01
  L 682.57 866.68
  L 648.79 788.71
  L 648.48 788.51
  L 638.81 788.51
  L 638.50 788.72
  L 604.98 866.55
  L 604.96 866.61
  L 605.03 866.90
  L 605.30 867.02
  L 615.63 867.02
  Z
  M 749.58 788.49
  L 749.25 788.82
  L 749.25 846.78
  L 749.03 847.09
  L 748.66 846.98
  L 703.04 788.55
  L 702.79 788.42
  L 702.78 788.42
  L 693.86 788.42
  L 693.53 788.75
  L 693.53 866.87
  L 693.86 867.20
  L 703.26 867.20
  L 703.59 866.87
  L 703.59 806.64
  L 703.77 806.35
  L 704.18 806.44
  L 751.16 866.63
  L 751.42 866.76
  L 759.03 866.76
  L 759.36 866.46
  L 759.36 866.43
  L 759.36 788.82
  L 759.03 788.49
  L 759.03 788.49
  L 749.58 788.49
  Z"
/>
<path fill="#252527" d="
  M 773.10 345.93
  L 771.34 351.69
  L 769.31 357.19
  L 767.03 362.43
  L 764.47 367.41
  L 761.65 372.13
  L 758.57 376.60
  L 755.23 380.80
  L 751.62 384.75
  L 751.62 384.75
  L 751.62 384.75
  L 751.62 384.75
  L 748.78 387.50
  L 745.79 390.10
  L 739.39 394.90
  L 732.42 399.12
  L 724.86 402.78
  L 720.12 404.66
  L 715.31 406.24
  L 710.44 407.53
  L 705.52 408.52
  L 700.59 409.19
  L 695.62 409.55
  L 690.73 409.59
  L 685.83 409.33
  L 681.48 408.82
  L 677.13 408.07
  L 676.61 408.16
  L 676.28 408.58
  L 673.20 420.10
  L 670.58 431.76
  L 668.42 443.57
  L 666.72 455.52
  L 664.89 472.77
  L 663.60 490.15
  L 662.84 507.67
  L 662.62 525.31
  L 662.75 560.55
  L 662.51 564.91
  L 662.19 566.53
  L 661.72 567.78
  L 660.48 569.86
  L 658.84 571.95
  L 656.92 573.86
  L 654.63 575.73
  L 652.04 577.48
  L 649.14 579.14
  L 645.87 580.72
  L 642.35 582.17
  L 633.74 585.21
  L 624.85 587.87
  L 615.69 590.14
  L 606.26 592.03
  L 591.38 594.43
  L 576.34 596.40
  L 561.13 597.93
  L 545.76 599.03
  L 530.21 599.69
  L 514.50 599.92
  L 498.62 599.71
  L 482.58 599.07
  L 466.39 597.97
  L 450.59 596.40
  L 435.18 594.37
  L 420.17 591.87
  L 410.94 589.96
  L 401.75 587.65
  L 392.60 584.94
  L 383.50 581.82
  L 379.00 579.94
  L 374.95 577.77
  L 371.34 575.28
  L 368.17 572.50
  L 366.44 570.53
  L 365.17 568.54
  L 364.36 566.52
  L 364.01 564.47
  L 364.01 564.47
  L 364.01 564.47
  L 364.00 563.81
  L 364.27 538.10
  L 364.32 513.00
  L 364.03 502.38
  L 363.18 484.30
  L 362.10 470.16
  L 360.33 456.02
  L 357.86 441.89
  L 354.69 427.76
  L 354.33 427.23
  L 353.71 427.05
  L 345.71 427.42
  L 337.87 427.15
  L 330.19 426.24
  L 322.68 424.67
  L 322.68 424.67
  L 315.45 422.50
  L 308.38 419.71
  L 301.47 416.29
  L 294.72 412.24
  L 289.66 408.72
  L 284.87 404.94
  L 280.36 400.90
  L 276.12 396.61
  L 276.12 396.61
  L 276.12 396.61
  L 276.12 396.61
  L 276.12 396.61
  L 271.42 391.15
  L 267.11 385.32
  L 263.20 379.13
  L 259.68 372.57
  L 257.01 366.94
  L 255.00 362.24
  L 252.01 353.09
  L 250.82 348.51
  L 249.84 343.92
  L 249.07 339.34
  L 248.51 334.75
  L 248.16 330.17
  L 248.02 325.58
  L 248.02 325.58
  L 248.16 319.24
  L 248.58 313.60
  L 249.25 308.06
  L 250.15 302.64
  L 251.28 297.32
  L 252.66 292.11
  L 254.27 287.01
  L 256.12 282.02
  L 258.21 277.13
  L 258.21 277.13
  L 258.21 277.13
  L 258.21 277.13
  L 260.40 272.62
  L 262.80 268.21
  L 265.41 263.89
  L 268.23 259.67
  L 271.27 255.55
  L 274.51 251.52
  L 277.97 247.59
  L 281.64 243.76
  L 285.32 240.25
  L 289.13 236.98
  L 293.06 233.96
  L 297.11 231.17
  L 304.15 226.95
  L 311.38 223.27
  L 319.59 219.82
  L 327.99 217.02
  L 336.67 214.83
  L 345.50 213.29
  L 354.59 212.37
  L 363.78 212.11
  L 373.14 212.49
  L 382.54 213.51
  L 391.56 215.15
  L 395.31 216.14
  L 398.55 217.23
  L 406.26 220.12
  L 406.64 220.14
  L 406.93 219.88
  L 410.76 213.92
  L 414.79 208.23
  L 419.03 202.83
  L 423.46 197.71
  L 428.10 192.86
  L 432.94 188.30
  L 437.98 184.02
  L 443.23 180.01
  L 443.23 180.01
  L 443.23 180.01
  L 449.00 176.08
  L 455.00 172.46
  L 462.33 168.61
  L 469.80 165.31
  L 477.40 162.55
  L 485.14 160.34
  L 485.14 160.34
  L 485.14 160.34
  L 485.14 160.34
  L 493.75 158.53
  L 502.52 157.38
  L 511.45 156.88
  L 520.54 157.02
  L 528.45 157.70
  L 536.18 158.92
  L 543.71 160.68
  L 551.04 162.98
  L 551.04 162.98
  L 551.04 162.98
  L 557.24 165.41
  L 563.29 168.25
  L 569.20 171.49
  L 574.96 175.14
  L 581.10 179.60
  L 586.85 184.39
  L 592.20 189.52
  L 597.15 194.99
  L 597.15 194.99
  L 597.15 194.99
  L 597.15 194.99
  L 600.24 198.83
  L 603.16 202.83
  L 605.90 206.98
  L 608.46 211.28
  L 610.84 215.72
  L 613.05 220.32
  L 615.07 225.07
  L 616.92 229.97
  L 617.15 230.25
  L 617.50 230.20
  L 628.69 224.67
  L 633.51 222.76
  L 638.38 221.10
  L 643.31 219.70
  L 648.28 218.55
  L 648.28 218.55
  L 648.28 218.55
  L 655.85 217.31
  L 663.53 216.64
  L 671.33 216.54
  L 679.25 217.02
  L 688.02 218.19
  L 696.51 220.00
  L 704.72 222.45
  L 712.65 225.54
  L 712.65 225.54
  L 712.65 225.54
  L 718.16 228.14
  L 723.52 231.07
  L 728.74 234.33
  L 733.82 237.91
  L 737.68 240.92
  L 741.37 244.05
  L 744.88 247.29
  L 748.22 250.65
  L 751.38 254.13
  L 754.36 257.72
  L 757.17 261.42
  L 759.80 265.24
  L 759.80 265.24
  L 759.80 265.24
  L 759.80 265.24
  L 762.83 270.15
  L 765.58 275.24
  L 768.07 280.51
  L 770.28 285.96
  L 772.50 292.53
  L 774.23 299.14
  L 775.49 305.79
  L 776.27 312.47
  L 776.27 312.47
  L 776.27 312.47
  L 776.57 320.75
  L 776.14 329.08
  L 774.98 337.48
  L 773.10 345.93
  Z
  M 409.92 338.80
  L 404.21 329.25
  L 400.26 321.56
  L 399.00 318.64
  L 397.40 314.45
  L 396.03 310.21
  L 394.84 305.80
  L 393.86 301.33
  L 393.06 296.68
  L 392.43 291.75
  L 391.71 281.31
  L 391.76 271.45
  L 392.59 261.83
  L 393.29 257.11
  L 394.20 252.45
  L 395.29 247.84
  L 396.58 243.30
  L 396.58 243.30
  L 396.58 243.30
  L 396.58 243.30
  L 396.58 243.30
  L 398.11 238.69
  L 399.84 234.15
  L 399.85 234.11
  L 399.81 233.79
  L 399.54 233.61
  L 393.94 232.73
  L 388.33 232.08
  L 382.72 231.64
  L 377.11 231.43
  L 377.11 231.43
  L 377.11 231.43
  L 377.11 231.43
  L 369.35 231.51
  L 361.58 232.00
  L 353.80 232.92
  L 346.02 234.27
  L 337.47 236.36
  L 329.18 239.16
  L 321.28 242.61
  L 313.75 246.73
  L 306.74 251.42
  L 300.18 256.73
  L 294.23 262.54
  L 288.83 268.91
  L 286.25 272.44
  L 283.86 276.07
  L 281.67 279.79
  L 279.66 283.60
  L 279.66 283.60
  L 279.66 283.60
  L 276.75 290.18
  L 274.36 297.02
  L 272.51 304.12
  L 271.20 311.49
  L 270.58 317.40
  L 270.36 323.30
  L 270.54 329.27
  L 271.12 335.19
  L 272.10 341.04
  L 273.47 346.80
  L 275.22 352.43
  L 277.35 357.92
  L 279.84 363.22
  L 282.69 368.34
  L 285.84 373.16
  L 289.31 377.75
  L 293.10 382.08
  L 297.19 386.13
  L 301.53 389.84
  L 306.15 393.26
  L 311.26 396.47
  L 315.88 398.91
  L 320.57 400.97
  L 325.48 402.71
  L 330.45 404.08
  L 335.53 405.09
  L 340.85 405.77
  L 346.25 406.10
  L 351.88 406.08
  L 357.56 405.71
  L 363.44 405.00
  L 369.42 403.95
  L 375.58 402.55
  L 381.96 400.80
  L 388.51 398.70
  L 395.30 396.23
  L 402.30 393.41
  L 409.65 390.17
  L 417.35 386.53
  L 417.99 386.38
  L 417.72 386.97
  L 414.40 391.23
  L 410.95 395.28
  L 407.37 399.12
  L 403.66 402.76
  L 399.82 406.18
  L 395.84 409.39
  L 391.74 412.39
  L 387.50 415.18
  L 387.50 415.18
  L 387.50 415.18
  L 381.89 418.44
  L 376.07 421.36
  L 375.74 421.65
  L 375.72 422.11
  L 377.94 430.93
  L 379.93 440.44
  L 381.66 450.64
  L 383.16 461.54
  L 385.09 480.34
  L 386.27 499.23
  L 386.72 518.23
  L 386.43 537.33
  L 386.43 537.38
  L 386.78 537.57
  L 393.45 535.02
  L 400.44 532.75
  L 407.73 530.75
  L 415.33 529.04
  L 429.12 526.45
  L 442.96 524.26
  L 442.96 524.26
  L 442.96 524.26
  L 455.19 522.67
  L 467.46 521.39
  L 479.78 520.42
  L 492.14 519.76
  L 504.55 519.41
  L 517.00 519.37
  L 529.50 519.65
  L 542.04 520.23
  L 561.97 521.67
  L 573.70 522.91
  L 585.54 524.49
  L 597.49 526.43
  L 609.55 528.71
  L 617.15 530.39
  L 624.74 532.33
  L 632.32 534.54
  L 639.88 537.01
  L 640.24 537.01
  L 640.36 536.67
  L 640.44 514.01
  L 640.95 496.68
  L 642.05 479.16
  L 643.73 461.43
  L 645.99 443.50
  L 648.07 430.48
  L 650.37 419.12
  L 652.88 409.14
  L 655.42 400.93
  L 657.19 396.22
  L 659.20 391.62
  L 659.20 391.62
  L 659.20 391.62
  L 659.20 391.62
  L 661.90 386.28
  L 664.92 381.10
  L 668.28 376.08
  L 671.97 371.21
  L 680.45 361.11
  L 688.71 352.16
  L 696.74 344.37
  L 704.55 337.73
  L 704.67 337.52
  L 704.82 337.30
  L 705.07 337.16
  L 704.97 337.44
  L 702.09 343.05
  L 697.85 352.07
  L 694.76 358.73
  L 688.35 373.20
  L 683.21 386.44
  L 683.20 386.48
  L 683.26 386.86
  L 683.59 387.08
  L 687.43 387.66
  L 691.24 387.96
  L 695.02 387.98
  L 698.77 387.73
  L 705.01 386.67
  L 711.17 384.82
  L 715.34 383.16
  L 719.36 381.27
  L 723.10 379.23
  L 726.69 376.95
  L 729.96 374.54
  L 733.06 371.91
  L 735.90 369.12
  L 738.55 366.10
  L 740.31 363.82
  L 743.39 359.27
  L 746.08 354.60
  L 748.39 349.78
  L 750.31 344.84
  L 750.31 344.84
  L 750.31 344.84
  L 752.20 338.36
  L 753.47 331.67
  L 754.11 324.76
  L 754.13 317.63
  L 753.53 310.31
  L 752.33 303.25
  L 750.53 296.43
  L 748.13 289.87
  L 745.78 284.80
  L 743.04 279.89
  L 739.92 275.14
  L 736.42 270.55
  L 736.07 270.12
  L 732.56 266.15
  L 728.85 262.42
  L 724.88 258.88
  L 720.72 255.59
  L 716.30 252.50
  L 711.71 249.68
  L 706.89 247.07
  L 701.92 244.74
  L 696.78 242.67
  L 691.53 240.88
  L 686.08 239.34
  L 680.54 238.10
  L 674.91 237.14
  L 669.22 236.47
  L 663.49 236.09
  L 657.74 236.00
  L 651.61 236.20
  L 645.41 236.66
  L 639.13 237.40
  L 632.78 238.41
  L 626.35 239.68
  L 619.84 241.23
  L 613.26 243.04
  L 606.60 245.13
  L 606.19 245.13
  L 605.93 244.83
  L 603.50 238.06
  L 601.27 232.29
  L 598.33 226.60
  L 594.66 220.95
  L 590.35 215.49
  L 584.19 208.86
  L 577.67 202.85
  L 570.77 197.44
  L 563.51 192.65
  L 563.51 192.65
  L 558.15 189.62
  L 552.60 186.90
  L 546.86 184.48
  L 540.94 182.37
  L 533.31 180.23
  L 525.70 178.76
  L 518.12 177.97
  L 510.55 177.86
  L 510.55 177.86
  L 503.96 178.32
  L 497.39 179.30
  L 490.84 180.79
  L 484.30 182.80
  L 477.81 185.30
  L 471.45 188.26
  L 465.19 191.67
  L 459.06 195.53
  L 454.02 199.09
  L 449.25 202.81
  L 444.73 206.71
  L 440.48 210.77
  L 436.48 214.99
  L 432.75 219.39
  L 429.28 223.95
  L 426.06 228.67
  L 426.06 228.67
  L 426.06 228.67
  L 426.06 228.67
  L 426.06 228.67
  L 423.17 233.46
  L 420.53 238.40
  L 418.14 243.51
  L 415.99 248.77
  L 414.10 254.20
  L 412.45 259.78
  L 411.06 265.53
  L 409.91 271.43
  L 408.56 280.23
  L 407.56 288.70
  L 406.93 296.79
  L 406.66 304.62
  L 406.74 312.19
  L 407.19 319.53
  L 408.00 326.59
  L 409.17 333.38
  L 410.16 338.71
  L 410.13 339.01
  L 409.92 338.80
  Z
  M 513.28 578.56
  L 531.63 578.26
  L 544.67 577.69
  L 557.70 576.81
  L 570.71 575.63
  L 583.72 574.15
  L 593.87 572.69
  L 603.87 570.88
  L 613.73 568.71
  L 623.45 566.18
  L 631.23 563.66
  L 638.38 560.65
  L 638.70 560.14
  L 638.38 559.63
  L 632.40 557.08
  L 626.18 554.87
  L 614.42 551.42
  L 602.31 548.50
  L 589.83 546.11
  L 577.00 544.25
  L 561.41 542.59
  L 545.60 541.40
  L 529.56 540.68
  L 513.28 540.44
  L 497.01 540.68
  L 480.97 541.39
  L 465.15 542.57
  L 449.57 544.23
  L 436.73 546.09
  L 424.25 548.47
  L 412.14 551.39
  L 400.38 554.83
  L 394.16 557.04
  L 388.18 559.59
  L 387.95 559.78
  L 387.88 560.25
  L 388.18 560.61
  L 395.33 563.62
  L 403.11 566.14
  L 412.83 568.67
  L 422.69 570.85
  L 432.69 572.66
  L 442.83 574.13
  L 455.84 575.61
  L 468.86 576.80
  L 481.89 577.68
  L 494.93 578.26
  L 513.28 578.56
  Z"
/>
<path fill="#f8f7f5" d="
  M 410.16 338.71
  L 409.17 333.38
  L 408.00 326.59
  L 407.19 319.53
  L 406.74 312.19
  L 406.66 304.62
  L 406.93 296.79
  L 407.56 288.70
  L 408.56 280.23
  L 409.91 271.43
  L 411.06 265.53
  L 412.45 259.78
  L 414.10 254.20
  L 415.99 248.77
  L 418.14 243.51
  L 420.53 238.40
  L 423.17 233.46
  L 426.06 228.67
  L 426.06 228.67
  L 429.28 223.95
  L 432.75 219.39
  L 436.48 214.99
  L 440.48 210.77
  L 444.73 206.71
  L 449.25 202.81
  L 454.02 199.09
  L 459.06 195.53
  L 465.19 191.67
  L 471.45 188.26
  L 477.81 185.30
  L 484.30 182.80
  L 490.84 180.79
  L 497.39 179.30
  L 503.96 178.32
  L 510.55 177.86
  L 510.55 177.86
  L 518.12 177.97
  L 525.70 178.76
  L 533.31 180.23
  L 540.94 182.37
  L 546.86 184.48
  L 552.60 186.90
  L 558.15 189.62
  L 563.51 192.65
  L 563.51 192.65
  L 570.77 197.44
  L 577.67 202.85
  L 584.19 208.86
  L 590.35 215.49
  L 594.66 220.95
  L 598.33 226.60
  L 601.27 232.29
  L 603.50 238.06
  L 605.93 244.83
  L 606.19 245.13
  L 606.60 245.13
  L 613.26 243.04
  L 619.84 241.23
  L 626.35 239.68
  L 632.78 238.41
  L 639.13 237.40
  L 645.41 236.66
  L 651.61 236.20
  L 657.74 236.00
  L 663.49 236.09
  L 669.22 236.47
  L 674.91 237.14
  L 680.54 238.10
  L 686.08 239.34
  L 691.53 240.88
  L 696.78 242.67
  L 701.92 244.74
  L 706.89 247.07
  L 711.71 249.68
  L 716.30 252.50
  L 720.72 255.59
  L 724.88 258.88
  L 728.85 262.42
  L 732.56 266.15
  L 736.07 270.12
  L 736.42 270.55
  L 739.92 275.14
  L 743.04 279.89
  L 745.78 284.80
  L 748.13 289.87
  L 750.53 296.43
  L 752.33 303.25
  L 753.53 310.31
  L 754.13 317.63
  L 754.11 324.76
  L 753.47 331.67
  L 752.20 338.36
  L 750.31 344.84
  L 750.31 344.84
  L 750.31 344.84
  L 750.31 344.84
  L 748.39 349.78
  L 746.08 354.60
  L 743.39 359.27
  L 740.31 363.82
  L 738.55 366.10
  L 735.90 369.12
  L 733.06 371.91
  L 729.96 374.54
  L 726.69 376.95
  L 723.10 379.23
  L 719.36 381.27
  L 715.34 383.16
  L 711.17 384.82
  L 705.01 386.67
  L 698.77 387.73
  L 695.02 387.98
  L 691.24 387.96
  L 687.43 387.66
  L 683.59 387.08
  L 683.26 386.86
  L 683.20 386.48
  L 683.21 386.44
  L 688.35 373.20
  L 694.76 358.73
  L 697.85 352.07
  L 702.09 343.05
  L 704.97 337.44
  L 705.07 337.16
  L 704.82 337.30
  L 704.67 337.52
  L 704.55 337.73
  L 696.74 344.37
  L 688.71 352.16
  L 680.45 361.11
  L 671.97 371.21
  L 668.28 376.08
  L 664.92 381.10
  L 661.90 386.28
  L 659.20 391.62
  L 659.20 391.62
  L 657.19 396.22
  L 655.42 400.93
  L 652.88 409.14
  L 650.37 419.12
  L 648.07 430.48
  L 645.99 443.50
  L 643.73 461.43
  L 642.05 479.16
  L 640.95 496.68
  L 640.44 514.01
  L 640.36 536.67
  L 640.24 537.01
  L 639.88 537.01
  L 632.32 534.54
  L 624.74 532.33
  L 617.15 530.39
  L 609.55 528.71
  L 597.49 526.43
  L 585.54 524.49
  L 573.70 522.91
  L 561.97 521.67
  L 542.04 520.23
  L 529.50 519.65
  L 517.00 519.37
  L 504.55 519.41
  L 492.14 519.76
  L 479.78 520.42
  L 467.46 521.39
  L 455.19 522.67
  L 442.96 524.26
  L 442.96 524.26
  L 442.96 524.26
  L 429.12 526.45
  L 415.33 529.04
  L 407.73 530.75
  L 400.44 532.75
  L 393.45 535.02
  L 386.78 537.57
  L 386.43 537.38
  L 386.43 537.33
  L 386.72 518.23
  L 386.27 499.23
  L 385.09 480.34
  L 383.16 461.54
  L 381.66 450.64
  L 379.93 440.44
  L 377.94 430.93
  L 375.72 422.11
  L 375.74 421.65
  L 376.07 421.36
  L 381.89 418.44
  L 387.50 415.18
  L 387.50 415.18
  L 391.74 412.39
  L 395.84 409.39
  L 399.82 406.18
  L 403.66 402.76
  L 407.37 399.12
  L 410.95 395.28
  L 414.40 391.23
  L 417.72 386.97
  L 417.99 386.38
  L 417.35 386.53
  L 409.65 390.17
  L 402.30 393.41
  L 395.30 396.23
  L 388.51 398.70
  L 381.96 400.80
  L 375.58 402.55
  L 369.42 403.95
  L 363.44 405.00
  L 357.56 405.71
  L 351.88 406.08
  L 346.25 406.10
  L 340.85 405.77
  L 335.53 405.09
  L 330.45 404.08
  L 325.48 402.71
  L 320.57 400.97
  L 315.88 398.91
  L 311.26 396.47
  L 306.15 393.26
  L 301.53 389.84
  L 297.19 386.13
  L 293.10 382.08
  L 289.31 377.75
  L 285.84 373.16
  L 282.69 368.34
  L 279.84 363.22
  L 277.35 357.92
  L 275.22 352.43
  L 273.47 346.80
  L 272.10 341.04
  L 271.12 335.19
  L 270.54 329.27
  L 270.36 323.30
  L 270.58 317.40
  L 271.20 311.49
  L 272.51 304.12
  L 274.36 297.02
  L 276.75 290.18
  L 279.66 283.60
  L 279.66 283.60
  L 279.66 283.60
  L 281.67 279.79
  L 283.86 276.07
  L 286.25 272.44
  L 288.83 268.91
  L 294.23 262.54
  L 300.18 256.73
  L 306.74 251.42
  L 313.75 246.73
  L 321.28 242.61
  L 329.18 239.16
  L 337.47 236.36
  L 346.02 234.27
  L 353.80 232.92
  L 361.58 232.00
  L 369.35 231.51
  L 377.11 231.43
  L 377.11 231.43
  L 382.72 231.64
  L 388.33 232.08
  L 393.94 232.73
  L 399.54 233.61
  L 399.81 233.79
  L 399.85 234.11
  L 399.85 234.11
  L 399.84 234.15
  L 398.11 238.69
  L 396.58 243.30
  L 396.58 243.30
  L 395.29 247.84
  L 394.20 252.45
  L 393.29 257.11
  L 392.59 261.83
  L 391.76 271.45
  L 391.71 281.31
  L 392.43 291.75
  L 393.06 296.68
  L 393.86 301.33
  L 394.84 305.80
  L 396.03 310.21
  L 397.40 314.45
  L 399.00 318.64
  L 400.26 321.56
  L 404.21 329.25
  L 409.92 338.80
  L 410.13 339.01
  L 410.16 338.71
  Z
  M 378.82 392.48
  L 379.47 392.26
  L 378.81 392.04
  L 369.15 390.25
  L 359.70 387.98
  L 350.43 385.23
  L 341.37 382.00
  L 335.32 379.38
  L 329.64 376.33
  L 324.32 372.86
  L 319.38 368.96
  L 318.73 368.40
  L 315.46 365.31
  L 312.46 362.05
  L 309.73 358.62
  L 307.26 355.02
  L 307.26 355.02
  L 307.26 355.02
  L 307.26 355.02
  L 307.26 355.02
  L 305.29 351.67
  L 303.53 348.18
  L 301.98 344.56
  L 300.65 340.80
  L 299.70 337.51
  L 298.95 334.14
  L 298.40 330.71
  L 298.04 327.24
  L 297.94 320.34
  L 298.18 316.89
  L 298.64 313.45
  L 299.28 310.13
  L 300.12 306.85
  L 301.13 303.73
  L 302.34 300.68
  L 303.72 297.75
  L 305.30 294.92
  L 307.02 292.29
  L 308.93 289.77
  L 308.94 289.76
  L 308.80 289.57
  L 308.68 289.51
  L 308.54 289.55
  L 305.32 291.87
  L 302.34 294.37
  L 299.58 297.06
  L 297.06 299.94
  L 297.06 299.94
  L 297.06 299.94
  L 293.61 304.74
  L 290.71 309.98
  L 289.04 313.85
  L 287.72 317.76
  L 286.76 321.70
  L 286.16 325.69
  L 286.16 325.69
  L 286.16 325.69
  L 285.92 330.65
  L 286.21 335.67
  L 287.06 340.75
  L 288.44 345.88
  L 290.46 351.39
  L 292.88 356.59
  L 295.70 361.48
  L 298.92 366.06
  L 298.92 366.06
  L 298.92 366.06
  L 298.92 366.06
  L 298.92 366.06
  L 301.87 369.59
  L 305.09 372.91
  L 308.59 376.02
  L 312.35 378.92
  L 316.39 381.61
  L 320.67 384.04
  L 325.21 386.23
  L 329.99 388.16
  L 334.76 389.78
  L 339.56 391.13
  L 344.41 392.22
  L 349.29 393.04
  L 356.55 393.77
  L 363.89 393.92
  L 371.32 393.49
  L 378.82 392.48
  Z
  M 569.73 306.82
  L 569.20 307.01
  L 568.64 306.89
  L 562.93 303.99
  L 557.41 301.42
  L 551.56 299.04
  L 545.59 297.06
  L 545.59 297.06
  L 537.21 294.98
  L 528.62 293.64
  L 521.58 293.13
  L 514.66 293.16
  L 507.85 293.76
  L 501.17 294.90
  L 493.40 296.98
  L 485.79 299.83
  L 482.28 301.45
  L 478.88 303.26
  L 475.51 305.28
  L 472.26 307.48
  L 469.11 309.87
  L 466.10 312.41
  L 463.22 315.10
  L 460.49 317.93
  L 457.86 320.96
  L 455.38 324.11
  L 453.07 327.39
  L 450.92 330.79
  L 448.94 334.29
  L 447.15 337.89
  L 445.53 341.58
  L 444.10 345.35
  L 442.68 349.72
  L 441.46 354.12
  L 440.46 358.55
  L 439.66 363.01
  L 439.66 363.01
  L 439.66 363.01
  L 439.66 363.01
  L 439.03 367.77
  L 438.64 372.56
  L 438.48 377.39
  L 438.56 382.25
  L 438.86 387.15
  L 439.40 392.09
  L 440.16 397.06
  L 441.16 402.07
  L 442.18 406.17
  L 443.41 410.21
  L 444.84 414.16
  L 446.47 418.03
  L 448.29 421.80
  L 450.30 425.46
  L 452.50 429.01
  L 454.89 432.44
  L 457.40 435.67
  L 460.08 438.77
  L 462.92 441.72
  L 465.93 444.52
  L 469.07 447.14
  L 472.36 449.59
  L 475.72 451.81
  L 479.21 453.86
  L 485.27 456.89
  L 491.42 459.40
  L 497.67 461.39
  L 504.02 462.85
  L 504.02 462.85
  L 504.02 462.85
  L 504.02 462.85
  L 508.53 463.56
  L 513.10 464.01
  L 517.71 464.21
  L 522.37 464.14
  L 527.08 463.82
  L 531.83 463.24
  L 536.64 462.40
  L 541.49 461.30
  L 547.39 459.50
  L 553.73 456.97
  L 565.59 451.60
  L 567.94 450.65
  L 570.20 450.08
  L 572.39 449.91
  L 574.50 450.13
  L 574.50 450.13
  L 574.50 450.13
  L 576.07 450.57
  L 577.59 451.23
  L 583.25 454.56
  L 586.96 457.23
  L 590.49 460.17
  L 590.94 460.29
  L 591.29 459.99
  L 591.32 459.81
  L 591.54 424.05
  L 591.87 413.76
  L 592.21 410.30
  L 592.66 407.96
  L 593.44 405.72
  L 594.42 403.68
  L 595.62 401.84
  L 597.02 400.20
  L 597.02 400.20
  L 597.02 400.20
  L 599.10 398.41
  L 601.52 396.95
  L 606.42 394.61
  L 611.24 392.53
  L 615.98 390.72
  L 620.65 389.17
  L 621.68 388.80
  L 622.01 388.53
  L 621.62 388.37
  L 620.52 388.32
  L 526.21 388.11
  L 524.77 388.18
  L 524.26 388.39
  L 524.26 388.39
  L 524.68 388.75
  L 526.03 389.26
  L 532.73 391.58
  L 539.35 394.21
  L 547.42 397.91
  L 550.14 399.42
  L 551.98 400.70
  L 553.66 402.28
  L 555.11 404.03
  L 555.11 404.03
  L 556.50 406.28
  L 557.58 408.76
  L 558.34 411.48
  L 558.78 414.42
  L 559.12 422.01
  L 558.70 429.53
  L 558.70 429.53
  L 558.09 433.97
  L 557.21 438.39
  L 556.27 441.65
  L 555.06 444.43
  L 553.59 446.75
  L 551.84 448.60
  L 548.46 451.10
  L 544.52 453.25
  L 540.20 454.97
  L 535.45 456.28
  L 530.36 457.15
  L 525.03 457.55
  L 519.69 457.46
  L 514.58 456.90
  L 509.24 455.74
  L 504.34 454.04
  L 499.87 451.79
  L 495.83 449.01
  L 495.83 449.01
  L 492.91 446.39
  L 490.27 443.42
  L 487.91 440.11
  L 485.82 436.45
  L 483.15 430.66
  L 480.90 424.60
  L 479.04 418.28
  L 477.60 411.68
  L 476.06 401.77
  L 475.07 391.74
  L 474.62 381.59
  L 474.72 371.32
  L 475.36 361.51
  L 476.56 352.03
  L 478.33 342.85
  L 480.67 334.00
  L 482.52 328.51
  L 484.61 323.48
  L 486.92 319.00
  L 489.48 314.99
  L 492.29 311.47
  L 495.32 308.47
  L 498.66 305.91
  L 502.20 303.88
  L 505.16 302.64
  L 508.44 301.60
  L 511.78 300.79
  L 515.27 300.20
  L 518.79 299.86
  L 522.34 299.75
  L 525.91 299.87
  L 529.56 300.23
  L 533.19 300.82
  L 536.82 301.65
  L 540.40 302.70
  L 543.89 303.97
  L 547.30 305.45
  L 550.60 307.12
  L 553.77 308.99
  L 556.80 311.05
  L 559.68 313.29
  L 562.79 316.15
  L 565.99 319.65
  L 569.31 323.78
  L 572.72 328.55
  L 576.30 334.01
  L 579.50 339.35
  L 582.32 344.57
  L 584.76 349.66
  L 589.71 360.16
  L 589.86 360.32
  L 590.27 360.32
  L 590.48 359.96
  L 590.48 292.91
  L 590.45 292.73
  L 590.08 292.37
  L 589.57 292.45
  L 569.73 306.82
  Z
  M 514.09 506.96
  L 513.93 506.75
  L 513.90 506.72
  L 513.88 506.72
  L 474.20 504.21
  L 436.03 501.15
  L 427.26 500.25
  L 419.30 499.16
  L 418.49 498.80
  L 417.97 498.07
  L 414.81 488.79
  L 411.91 478.86
  L 397.37 425.72
  L 395.32 419.42
  L 394.98 418.72
  L 394.95 419.50
  L 402.85 515.39
  L 403.08 515.81
  L 403.53 515.94
  L 403.57 515.93
  L 414.42 513.93
  L 425.04 512.56
  L 447.59 510.52
  L 469.93 508.94
  L 492.06 507.83
  L 513.97 507.19
  L 514.14 507.13
  L 514.09 506.96
  Z"
/>
<path fill="#252527" d="
  M 378.82 392.48
  L 371.32 393.49
  L 363.89 393.92
  L 356.55 393.77
  L 349.29 393.04
  L 344.41 392.22
  L 339.56 391.13
  L 334.76 389.78
  L 329.99 388.16
  L 325.21 386.23
  L 320.67 384.04
  L 316.39 381.61
  L 312.35 378.92
  L 308.59 376.02
  L 305.09 372.91
  L 301.87 369.59
  L 298.92 366.06
  L 298.92 366.06
  L 298.92 366.06
  L 298.92 366.06
  L 295.70 361.48
  L 292.88 356.59
  L 290.46 351.39
  L 288.44 345.88
  L 287.06 340.75
  L 286.21 335.67
  L 285.92 330.65
  L 286.16 325.69
  L 286.16 325.69
  L 286.16 325.69
  L 286.76 321.70
  L 287.72 317.76
  L 289.04 313.85
  L 290.71 309.98
  L 293.61 304.74
  L 297.06 299.94
  L 299.58 297.06
  L 302.34 294.37
  L 305.32 291.87
  L 308.54 289.55
  L 308.68 289.51
  L 308.80 289.57
  L 308.94 289.76
  L 308.93 289.77
  L 307.02 292.29
  L 305.30 294.92
  L 303.72 297.75
  L 302.34 300.68
  L 301.13 303.73
  L 300.12 306.85
  L 299.28 310.13
  L 298.64 313.45
  L 298.18 316.89
  L 297.94 320.34
  L 298.04 327.24
  L 298.40 330.71
  L 298.95 334.14
  L 299.70 337.51
  L 300.65 340.80
  L 301.98 344.56
  L 303.53 348.18
  L 305.29 351.67
  L 307.26 355.02
  L 307.26 355.02
  L 307.26 355.02
  L 307.26 355.02
  L 309.73 358.62
  L 312.46 362.05
  L 315.46 365.31
  L 318.73 368.40
  L 319.38 368.96
  L 319.38 368.96
  L 324.32 372.86
  L 329.64 376.33
  L 335.32 379.38
  L 341.37 382.00
  L 350.43 385.23
  L 359.70 387.98
  L 369.15 390.25
  L 378.81 392.04
  L 379.47 392.26
  L 378.82 392.48
  Z"
/>
<path fill="#252527" d="
  M 569.73 306.82
  L 589.57 292.45
  L 590.08 292.37
  L 590.45 292.73
  L 590.48 292.91
  L 590.48 359.96
  L 590.27 360.32
  L 589.86 360.32
  L 589.71 360.16
  L 584.76 349.66
  L 582.32 344.57
  L 579.50 339.35
  L 576.30 334.01
  L 572.72 328.55
  L 569.31 323.78
  L 565.99 319.65
  L 562.79 316.15
  L 559.68 313.29
  L 556.80 311.05
  L 553.77 308.99
  L 550.60 307.12
  L 547.30 305.45
  L 543.89 303.97
  L 540.40 302.70
  L 536.82 301.65
  L 533.19 300.82
  L 529.56 300.23
  L 525.91 299.87
  L 522.34 299.75
  L 518.79 299.86
  L 515.27 300.20
  L 511.78 300.79
  L 508.44 301.60
  L 505.16 302.64
  L 502.20 303.88
  L 498.66 305.91
  L 495.32 308.47
  L 492.29 311.47
  L 489.48 314.99
  L 486.92 319.00
  L 484.61 323.48
  L 482.52 328.51
  L 480.67 334.00
  L 478.33 342.85
  L 476.56 352.03
  L 475.36 361.51
  L 474.72 371.32
  L 474.62 381.59
  L 475.07 391.74
  L 476.06 401.77
  L 477.60 411.68
  L 479.04 418.28
  L 480.90 424.60
  L 483.15 430.66
  L 485.82 436.45
  L 487.91 440.11
  L 490.27 443.42
  L 492.91 446.39
  L 495.83 449.01
  L 495.83 449.01
  L 499.87 451.79
  L 504.34 454.04
  L 509.24 455.74
  L 514.58 456.90
  L 519.69 457.46
  L 525.03 457.55
  L 530.36 457.15
  L 535.45 456.28
  L 540.20 454.97
  L 544.52 453.25
  L 548.46 451.10
  L 551.84 448.60
  L 553.59 446.75
  L 555.06 444.43
  L 556.27 441.65
  L 557.21 438.39
  L 558.09 433.97
  L 558.70 429.53
  L 558.70 429.53
  L 558.70 429.53
  L 559.12 422.01
  L 558.78 414.42
  L 558.34 411.48
  L 557.58 408.76
  L 556.50 406.28
  L 555.11 404.03
  L 555.11 404.03
  L 555.11 404.03
  L 553.66 402.28
  L 551.98 400.70
  L 550.14 399.42
  L 547.42 397.91
  L 539.35 394.21
  L 532.73 391.58
  L 526.03 389.26
  L 524.68 388.75
  L 524.26 388.39
  L 524.26 388.39
  L 524.77 388.18
  L 526.21 388.11
  L 620.52 388.32
  L 621.62 388.37
  L 622.01 388.53
  L 621.68 388.80
  L 620.65 389.17
  L 615.98 390.72
  L 611.24 392.53
  L 606.42 394.61
  L 601.52 396.95
  L 599.10 398.41
  L 597.02 400.20
  L 597.02 400.20
  L 597.02 400.20
  L 595.62 401.84
  L 594.42 403.68
  L 593.44 405.72
  L 592.66 407.96
  L 592.21 410.30
  L 591.87 413.76
  L 591.54 424.05
  L 591.32 459.81
  L 591.29 459.99
  L 590.94 460.29
  L 590.49 460.17
  L 586.96 457.23
  L 583.25 454.56
  L 577.59 451.23
  L 576.07 450.57
  L 574.50 450.13
  L 574.50 450.13
  L 572.39 449.91
  L 570.20 450.08
  L 567.94 450.65
  L 565.59 451.60
  L 553.73 456.97
  L 547.39 459.50
  L 541.49 461.30
  L 536.64 462.40
  L 531.83 463.24
  L 527.08 463.82
  L 522.37 464.14
  L 517.71 464.21
  L 513.10 464.01
  L 508.53 463.56
  L 504.02 462.85
  L 504.02 462.85
  L 497.67 461.39
  L 491.42 459.40
  L 485.27 456.89
  L 479.21 453.86
  L 475.72 451.81
  L 472.36 449.59
  L 469.07 447.14
  L 465.93 444.52
  L 462.92 441.72
  L 460.08 438.77
  L 457.40 435.67
  L 454.89 432.44
  L 452.50 429.01
  L 450.30 425.46
  L 448.29 421.80
  L 446.47 418.03
  L 444.84 414.16
  L 443.41 410.21
  L 442.18 406.17
  L 441.16 402.07
  L 440.16 397.06
  L 439.40 392.09
  L 438.86 387.15
  L 438.56 382.25
  L 438.48 377.39
  L 438.64 372.56
  L 439.03 367.77
  L 439.66 363.01
  L 440.46 358.55
  L 441.46 354.12
  L 442.68 349.72
  L 444.10 345.35
  L 445.53 341.58
  L 447.15 337.89
  L 448.94 334.29
  L 450.92 330.79
  L 453.07 327.39
  L 455.38 324.11
  L 457.86 320.96
  L 460.49 317.93
  L 463.22 315.10
  L 466.10 312.41
  L 469.11 309.87
  L 472.26 307.48
  L 475.51 305.28
  L 478.88 303.26
  L 482.28 301.45
  L 485.79 299.83
  L 493.40 296.98
  L 501.17 294.90
  L 501.17 294.90
  L 507.85 293.76
  L 514.66 293.16
  L 521.58 293.13
  L 528.62 293.64
  L 537.21 294.98
  L 545.59 297.06
  L 545.59 297.06
  L 551.56 299.04
  L 557.41 301.42
  L 562.93 303.99
  L 568.64 306.89
  L 569.20 307.01
  L 569.73 306.82
  Z"
/>
<path fill="#f8f7f5" d="
  M 785.98 606.80
  L 726.27 602.61
  L 666.50 598.20
  L 659.13 597.90
  L 657.79 598.08
  L 656.99 598.64
  L 656.99 598.64
  L 656.94 598.72
  L 654.10 603.02
  L 651.03 607.03
  L 647.71 610.73
  L 644.16 614.13
  L 643.98 614.42
  L 644.31 614.51
  L 658.00 614.18
  L 703.07 613.37
  L 748.11 612.78
  L 793.14 612.40
  L 838.14 612.25
  L 839.27 614.72
  L 840.05 617.21
  L 840.45 619.32
  L 840.64 621.43
  L 840.61 623.64
  L 840.38 625.85
  L 839.26 630.57
  L 837.30 635.53
  L 834.07 641.80
  L 830.43 647.65
  L 826.36 653.07
  L 821.87 658.07
  L 821.59 658.30
  L 821.59 658.30
  L 820.78 658.59
  L 819.74 658.53
  L 817.84 658.43
  L 814.79 658.68
  L 764.00 658.52
  L 764.00 658.52
  L 763.55 658.71
  L 763.36 659.16
  L 763.36 670.98
  L 763.57 671.49
  L 764.08 671.70
  L 764.08 671.70
  L 790.07 671.55
  L 786.66 673.54
  L 783.44 675.72
  L 780.42 678.10
  L 777.60 680.68
  L 777.60 680.68
  L 773.96 684.64
  L 770.71 688.99
  L 761.02 703.29
  L 748.85 721.00
  L 745.47 726.50
  L 741.06 734.70
  L 738.92 737.39
  L 736.74 739.80
  L 734.53 741.94
  L 732.29 743.79
  L 729.13 745.96
  L 725.89 747.75
  L 722.54 749.18
  L 719.11 750.24
  L 719.11 750.24
  L 715.17 750.98
  L 711.11 751.26
  L 708.63 751.20
  L 705.52 750.88
  L 702.49 750.28
  L 699.44 749.40
  L 696.50 748.25
  L 693.62 746.83
  L 690.87 745.18
  L 688.26 743.29
  L 685.82 741.20
  L 683.52 738.89
  L 681.41 736.39
  L 679.50 733.73
  L 677.80 730.91
  L 676.35 727.97
  L 675.13 724.90
  L 674.19 721.83
  L 673.50 718.68
  L 672.97 714.88
  L 672.72 711.15
  L 672.75 707.50
  L 673.06 703.92
  L 673.65 700.49
  L 674.53 697.17
  L 675.69 693.94
  L 677.13 690.84
  L 679.52 686.88
  L 682.44 683.17
  L 685.81 679.79
  L 689.71 676.68
  L 692.50 674.89
  L 695.43 673.39
  L 695.43 673.39
  L 698.11 672.32
  L 700.89 671.48
  L 703.77 670.87
  L 706.76 670.49
  L 710.67 670.33
  L 714.44 670.54
  L 718.16 671.12
  L 721.73 672.08
  L 724.51 673.11
  L 727.19 674.37
  L 729.76 675.85
  L 732.23 677.53
  L 734.65 679.47
  L 736.96 681.62
  L 739.15 683.96
  L 741.23 686.50
  L 741.59 686.75
  L 742.02 686.60
  L 751.10 679.52
  L 751.54 678.74
  L 751.32 677.87
  L 747.84 673.62
  L 744.09 669.86
  L 740.05 666.59
  L 735.74 663.80
  L 735.74 663.80
  L 735.74 663.80
  L 735.74 663.80
  L 731.44 661.63
  L 726.90 659.88
  L 722.12 658.56
  L 717.09 657.67
  L 711.56 657.20
  L 706.18 657.26
  L 700.94 657.85
  L 695.85 658.98
  L 695.85 658.98
  L 695.85 658.98
  L 695.85 658.98
  L 690.66 660.73
  L 685.62 663.08
  L 680.76 666.01
  L 676.05 669.53
  L 672.68 672.58
  L 669.64 675.87
  L 667.52 678.56
  L 665.61 681.38
  L 663.85 684.38
  L 662.31 687.50
  L 660.97 690.73
  L 659.85 694.04
  L 658.95 697.42
  L 658.27 700.86
  L 657.81 704.38
  L 657.57 707.92
  L 657.56 711.50
  L 657.76 715.08
  L 658.19 718.65
  L 658.84 722.22
  L 659.72 725.76
  L 660.82 729.26
  L 653.58 734.01
  L 646.52 738.91
  L 643.19 741.14
  L 640.31 743.33
  L 637.75 745.81
  L 636.16 747.70
  L 634.73 749.74
  L 587.18 749.76
  L 586.88 749.64
  L 586.76 749.34
  L 586.76 716.03
  L 586.81 715.88
  L 586.96 715.83
  L 636.76 716.11
  L 636.94 716.04
  L 637.01 715.86
  L 637.01 703.83
  L 636.87 703.48
  L 636.52 703.34
  L 587.46 703.34
  L 587.00 703.15
  L 586.81 702.69
  L 586.81 672.13
  L 586.95 671.72
  L 587.34 671.59
  L 641.65 671.59
  L 642.34 671.36
  L 642.62 670.55
  L 642.62 659.09
  L 642.47 658.74
  L 642.12 658.59
  L 573.53 658.59
  L 572.69 658.87
  L 572.41 659.71
  L 572.41 761.95
  L 572.42 762.03
  L 572.61 762.39
  L 572.99 762.53
  L 607.93 762.57
  L 600.49 769.30
  L 592.82 775.79
  L 587.53 779.79
  L 582.31 783.08
  L 577.13 785.64
  L 572.02 787.49
  L 565.45 789.35
  L 557.89 791.57
  L 553.92 793.22
  L 552.47 794.18
  L 550.72 795.65
  L 548.80 797.25
  L 547.18 798.26
  L 545.09 799.29
  L 539.53 801.71
  L 533.79 803.73
  L 525.51 789.07
  L 525.10 788.66
  L 524.55 788.51
  L 515.27 788.51
  L 514.90 788.67
  L 514.74 789.04
  L 514.75 799.98
  L 511.65 800.42
  L 508.60 801.05
  L 503.86 802.45
  L 499.24 804.35
  L 498.06 801.47
  L 496.63 798.89
  L 494.93 796.59
  L 492.98 794.58
  L 492.98 794.58
  L 490.44 792.65
  L 487.56 791.09
  L 484.36 789.91
  L 480.81 789.10
  L 477.14 788.71
  L 472.00 788.52
  L 456.86 788.39
  L 441.67 788.46
  L 441.29 788.60
  L 441.16 788.98
  L 441.23 808.02
  L 439.52 802.99
  L 437.77 799.33
  L 435.68 796.41
  L 433.16 794.17
  L 431.31 793.09
  L 429.20 792.25
  L 425.62 791.36
  L 421.23 790.72
  L 421.20 789.12
  L 420.95 788.69
  L 420.47 788.55
  L 411.20 788.55
  L 411.20 788.55
  L 410.76 788.74
  L 410.58 789.18
  L 410.62 800.14
  L 406.08 794.49
  L 401.18 789.42
  L 395.92 784.93
  L 390.30 781.03
  L 390.01 780.85
  L 381.04 775.63
  L 371.70 770.81
  L 362.00 766.39
  L 351.94 762.36
  L 355.12 762.50
  L 355.56 762.27
  L 355.56 761.77
  L 355.56 761.77
  L 355.54 761.74
  L 327.83 720.88
  L 327.74 720.55
  L 328.03 720.35
  L 331.13 719.40
  L 334.06 718.27
  L 336.79 716.95
  L 339.33 715.46
  L 341.63 713.81
  L 343.73 711.98
  L 345.62 709.98
  L 347.30 707.81
  L 349.44 704.12
  L 351.04 700.01
  L 352.04 695.60
  L 352.47 690.80
  L 352.29 686.33
  L 351.53 682.06
  L 350.17 677.94
  L 348.24 674.11
  L 346.89 672.06
  L 345.37 670.12
  L 343.69 668.31
  L 341.84 666.62
  L 337.78 663.73
  L 333.17 661.43
  L 329.92 660.21
  L 326.97 659.34
  L 324.33 658.81
  L 322.00 658.63
  L 308.36 658.60
  L 292.78 658.64
  L 289.25 658.52
  L 288.85 658.39
  L 288.63 658.02
  L 287.54 654.42
  L 286.26 651.05
  L 284.78 647.92
  L 283.11 645.02
  L 272.02 627.97
  L 268.37 621.74
  L 263.78 612.75
  L 321.56 613.08
  L 379.33 614.02
  L 381.02 614.20
  L 382.72 614.39
  L 383.52 614.24
  L 382.93 613.67
  L 381.03 612.11
  L 377.92 608.91
  L 375.01 605.58
  L 372.29 602.12
  L 369.76 598.54
  L 369.76 598.54
  L 369.69 598.43
  L 369.11 597.92
  L 368.34 597.76
  L 236.85 606.57
  L 234.02 595.83
  L 229.69 581.90
  L 226.60 571.25
  L 224.12 560.13
  L 222.27 548.55
  L 221.03 536.51
  L 220.02 519.14
  L 219.30 497.90
  L 219.27 496.61
  L 218.96 481.59
  L 218.97 471.43
  L 219.31 462.36
  L 220.02 453.78
  L 220.55 449.40
  L 221.92 441.56
  L 223.96 433.74
  L 226.67 425.95
  L 230.04 418.18
  L 232.64 413.11
  L 236.87 405.47
  L 242.71 394.84
  L 246.32 387.39
  L 248.83 381.29
  L 251.12 375.07
  L 253.17 368.72
  L 255.00 362.24
  L 257.01 366.94
  L 259.68 372.57
  L 263.20 379.13
  L 267.11 385.32
  L 271.42 391.15
  L 276.12 396.61
  L 280.36 400.90
  L 284.87 404.94
  L 289.66 408.72
  L 294.72 412.24
  L 301.47 416.29
  L 308.38 419.71
  L 315.45 422.50
  L 322.68 424.67
  L 322.68 424.67
  L 330.19 426.24
  L 337.87 427.15
  L 345.71 427.42
  L 353.71 427.05
  L 354.33 427.23
  L 354.69 427.76
  L 357.86 441.89
  L 360.33 456.02
  L 362.10 470.16
  L 363.18 484.30
  L 364.03 502.38
  L 364.32 513.00
  L 364.27 538.10
  L 364.00 563.81
  L 364.01 564.47
  L 364.01 564.47
  L 364.36 566.52
  L 365.17 568.54
  L 366.44 570.53
  L 368.17 572.50
  L 371.34 575.28
  L 374.95 577.77
  L 379.00 579.94
  L 383.50 581.82
  L 392.60 584.94
  L 401.75 587.65
  L 410.94 589.96
  L 420.17 591.87
  L 435.18 594.37
  L 450.59 596.40
  L 466.39 597.97
  L 482.58 599.07
  L 498.62 599.71
  L 514.50 599.92
  L 530.21 599.69
  L 545.76 599.03
  L 561.13 597.93
  L 576.34 596.40
  L 591.38 594.43
  L 606.26 592.03
  L 615.69 590.14
  L 624.85 587.87
  L 633.74 585.21
  L 642.35 582.17
  L 645.87 580.72
  L 649.14 579.14
  L 652.04 577.48
  L 654.63 575.73
  L 656.92 573.86
  L 658.84 571.95
  L 660.48 569.86
  L 661.72 567.78
  L 662.19 566.53
  L 662.51 564.91
  L 662.75 560.55
  L 662.62 525.31
  L 662.84 507.67
  L 663.60 490.15
  L 664.89 472.77
  L 666.72 455.52
  L 668.42 443.57
  L 670.58 431.76
  L 673.20 420.10
  L 676.28 408.58
  L 676.61 408.16
  L 677.13 408.07
  L 681.48 408.82
  L 685.83 409.33
  L 690.73 409.59
  L 695.62 409.55
  L 700.59 409.19
  L 705.52 408.52
  L 710.44 407.53
  L 715.31 406.24
  L 720.12 404.66
  L 724.86 402.78
  L 732.42 399.12
  L 739.39 394.90
  L 745.79 390.10
  L 748.78 387.50
  L 751.62 384.75
  L 751.62 384.75
  L 751.62 384.75
  L 751.62 384.75
  L 751.62 384.75
  L 755.23 380.80
  L 758.57 376.60
  L 761.65 372.13
  L 764.47 367.41
  L 767.03 362.43
  L 769.31 357.19
  L 771.34 351.69
  L 773.10 345.93
  L 773.43 351.73
  L 774.36 357.05
  L 775.89 361.87
  L 778.01 366.21
  L 780.33 370.13
  L 787.45 382.36
  L 792.14 391.38
  L 795.88 399.74
  L 800.14 410.87
  L 803.91 422.60
  L 807.19 434.95
  L 809.98 447.90
  L 811.30 456.04
  L 812.11 464.09
  L 812.41 472.04
  L 812.20 479.90
  L 811.42 489.85
  L 810.06 503.40
  L 805.57 541.30
  L 802.89 561.11
  L 801.16 568.77
  L 799.46 575.40
  L 797.79 581.02
  L 796.15 585.61
  L 792.10 594.69
  L 785.98 606.80
  Z
  M 475.5846 714.5644
  L 475.7119 709.2724
  L 475.3180 703.9933
  L 474.4068 698.7778
  L 472.9871 693.6761
  L 471.0724 688.7374
  L 468.6813 684.0093
  L 465.8368 679.5372
  L 462.5663 675.3643
  L 458.9012 671.5308
  L 454.8769 668.0735
  L 450.5322 665.0257
  L 445.9088 662.4169
  L 441.0513 660.2721
  L 436.0064 658.6119
  L 430.8229 657.4525
  L 425.5505 656.8049
  L 420.2400 656.6753
  L 414.9427 657.0651
  L 409.7095 657.9705
  L 404.5907 659.3827
  L 399.6358 661.2881
  L 394.8924 663.6685
  L 390.4063 666.5008
  L 386.2205 669.7578
  L 382.3755 673.4082
  L 378.9082 677.4168
  L 375.8520 681.7449
  L 373.2365 686.3509
  L 371.0867 691.1904
  L 369.4234 696.2169
  L 368.2625 701.3819
  L 367.6154 706.6356
  L 367.6154 706.6356
  L 367.4881 711.9276
  L 367.8820 717.2067
  L 368.7932 722.4222
  L 370.2129 727.5239
  L 372.1276 732.4626
  L 374.5187 737.1907
  L 377.3632 741.6628
  L 380.6337 745.8357
  L 384.2988 749.6692
  L 388.3231 753.1265
  L 392.6678 756.1743
  L 397.2912 758.7831
  L 402.1487 760.9279
  L 407.1936 762.5881
  L 412.3771 763.7475
  L 417.6495 764.3951
  L 422.9600 764.5247
  L 428.2573 764.1349
  L 433.4905 763.2295
  L 438.6093 761.8173
  L 443.5642 759.9119
  L 448.3076 757.5315
  L 452.7937 754.6992
  L 456.9795 751.4422
  L 460.8245 747.7918
  L 464.2918 743.7832
  L 467.3480 739.4551
  L 469.9635 734.8491
  L 472.1133 730.0096
  L 473.7766 724.9831
  L 474.9375 719.8181
  L 475.5846 714.5644
  Z
  M 530.20 739.22
  L 529.44 741.55
  L 528.44 743.62
  L 527.14 745.52
  L 525.63 747.15
  L 523.79 748.61
  L 521.76 749.75
  L 519.47 750.61
  L 517.05 751.13
  L 514.52 751.32
  L 511.94 751.17
  L 509.33 750.69
  L 506.74 749.88
  L 504.18 748.57
  L 501.52 746.57
  L 499.09 744.15
  L 497.20 741.59
  L 496.90 741.38
  L 496.54 741.44
  L 496.53 741.45
  L 486.53 748.70
  L 486.26 749.13
  L 486.38 749.62
  L 486.38 749.62
  L 486.38 749.63
  L 489.34 753.31
  L 492.55 756.47
  L 496.02 759.09
  L 499.73 761.19
  L 499.73 761.19
  L 499.73 761.19
  L 503.47 762.69
  L 507.44 763.72
  L 511.63 764.28
  L 516.04 764.37
  L 520.33 763.96
  L 524.47 763.02
  L 524.47 763.02
  L 528.39 761.57
  L 532.15 759.61
  L 533.50 758.74
  L 536.25 756.52
  L 538.64 753.98
  L 540.75 751.05
  L 542.47 747.87
  L 543.87 744.31
  L 544.84 740.60
  L 545.42 736.70
  L 545.56 732.75
  L 545.41 658.98
  L 545.28 658.65
  L 544.96 658.52
  L 544.96 658.52
  L 531.45 658.52
  L 531.10 658.66
  L 530.96 659.01
  L 530.96 707.28
  L 531.17 730.51
  L 531.16 732.70
  L 531.16 732.70
  L 530.85 735.97
  L 530.20 739.22
  Z"
/>
<path fill="#252527" d="
  M 514.09 506.96
  L 514.14 507.13
  L 513.97 507.19
  L 492.06 507.83
  L 469.93 508.94
  L 447.59 510.52
  L 425.04 512.56
  L 414.42 513.93
  L 403.57 515.93
  L 403.53 515.94
  L 403.08 515.81
  L 402.85 515.39
  L 394.95 419.50
  L 394.98 418.72
  L 395.32 419.42
  L 397.37 425.72
  L 411.91 478.86
  L 414.81 488.79
  L 417.97 498.07
  L 418.49 498.80
  L 419.30 499.16
  L 427.26 500.25
  L 436.03 501.15
  L 474.20 504.21
  L 513.88 506.72
  L 513.90 506.72
  L 513.93 506.75
  L 514.09 506.96
  Z"
/>
<path fill="#ea7d4a" d="
  M 513.28 540.44
  L 529.56 540.68
  L 545.60 541.40
  L 561.41 542.59
  L 577.00 544.25
  L 589.83 546.11
  L 602.31 548.50
  L 614.42 551.42
  L 626.18 554.87
  L 632.40 557.08
  L 638.38 559.63
  L 638.70 560.14
  L 638.38 560.65
  L 631.23 563.66
  L 623.45 566.18
  L 613.73 568.71
  L 603.87 570.88
  L 593.87 572.69
  L 583.72 574.15
  L 570.71 575.63
  L 557.70 576.81
  L 544.67 577.69
  L 531.63 578.26
  L 513.28 578.56
  L 494.93 578.26
  L 481.89 577.68
  L 468.86 576.80
  L 455.84 575.61
  L 442.83 574.13
  L 432.69 572.66
  L 422.69 570.85
  L 412.83 568.67
  L 403.11 566.14
  L 395.33 563.62
  L 388.18 560.61
  L 387.86 560.10
  L 388.18 559.59
  L 394.16 557.04
  L 400.38 554.83
  L 412.14 551.39
  L 424.25 548.47
  L 436.73 546.09
  L 449.57 544.23
  L 465.15 542.57
  L 480.97 541.39
  L 497.01 540.68
  L 513.28 540.44
  Z"
/>
<path fill="#ea7d4a" d="
  M 263.78 612.75
  L 167.07 611.95
  L 166.96 611.90
  L 166.90 611.88
  L 166.85 611.87
  L 166.90 611.86
  L 236.85 606.57
  L 368.34 597.76
  L 369.11 597.92
  L 369.69 598.43
  L 369.76 598.54
  L 369.76 598.54
  L 372.29 602.12
  L 375.01 605.58
  L 377.92 608.91
  L 381.03 612.11
  L 382.93 613.67
  L 383.52 614.24
  L 382.72 614.39
  L 381.02 614.20
  L 379.33 614.02
  L 321.56 613.08
  L 263.78 612.75
  Z"
/>
<path fill="#ea7d4a" d="
  M 785.98 606.80
  L 859.21 611.88
  L 859.23 611.93
  L 859.21 611.94
  L 838.14 612.25
  L 793.14 612.40
  L 748.11 612.78
  L 703.07 613.37
  L 658.00 614.18
  L 644.31 614.51
  L 643.98 614.42
  L 644.16 614.13
  L 647.71 610.73
  L 651.03 607.03
  L 654.10 603.02
  L 656.94 598.72
  L 656.99 598.64
  L 656.99 598.64
  L 657.79 598.08
  L 659.13 597.90
  L 666.50 598.20
  L 726.27 602.61
  L 785.98 606.80
  Z"
/>
<path fill="#252527" d="
  M 475.5846 714.5644
  L 474.9375 719.8181
  L 473.7766 724.9831
  L 472.1133 730.0096
  L 469.9635 734.8491
  L 467.3480 739.4551
  L 464.2918 743.7832
  L 460.8245 747.7918
  L 456.9795 751.4422
  L 452.7937 754.6992
  L 448.3076 757.5315
  L 443.5642 759.9119
  L 438.6093 761.8173
  L 433.4905 763.2295
  L 428.2573 764.1349
  L 422.9600 764.5247
  L 417.6495 764.3951
  L 412.3771 763.7475
  L 407.1936 762.5881
  L 402.1487 760.9279
  L 397.2912 758.7831
  L 392.6678 756.1743
  L 388.3231 753.1265
  L 384.2988 749.6692
  L 380.6337 745.8357
  L 377.3632 741.6628
  L 374.5187 737.1907
  L 372.1276 732.4626
  L 370.2129 727.5239
  L 368.7932 722.4222
  L 367.8820 717.2067
  L 367.4881 711.9276
  L 367.6154 706.6356
  L 367.6154 706.6356
  L 368.2625 701.3819
  L 369.4234 696.2169
  L 371.0867 691.1904
  L 373.2365 686.3509
  L 375.8520 681.7449
  L 378.9082 677.4168
  L 382.3755 673.4082
  L 386.2205 669.7578
  L 390.4063 666.5008
  L 394.8924 663.6685
  L 399.6358 661.2881
  L 404.5907 659.3827
  L 409.7095 657.9705
  L 414.9427 657.0651
  L 420.2400 656.6753
  L 425.5505 656.8049
  L 430.8229 657.4525
  L 436.0064 658.6119
  L 441.0513 660.2721
  L 445.9088 662.4169
  L 450.5322 665.0257
  L 454.8769 668.0735
  L 458.9012 671.5308
  L 462.5663 675.3643
  L 465.8368 679.5372
  L 468.6813 684.0093
  L 471.0724 688.7374
  L 472.9871 693.6761
  L 474.4068 698.7778
  L 475.3180 703.9933
  L 475.7119 709.2724
  L 475.5846 714.5644
  Z
  M 421.6818 751.2198
  L 425.5155 751.0107
  L 429.3110 750.4124
  L 433.0316 749.4306
  L 436.6415 748.0747
  L 440.1060 746.3579
  L 443.3917 744.2965
  L 446.4669 741.9106
  L 449.3021 739.2230
  L 451.8700 736.2597
  L 454.1457 733.0491
  L 456.1074 729.6223
  L 457.7362 726.0122
  L 459.0164 722.2535
  L 459.9358 718.3825
  L 460.4853 714.4365
  L 460.6598 710.4534
  L 460.4575 706.4717
  L 459.8804 702.5296
  L 458.9341 698.6651
  L 457.6277 694.9155
  L 455.9737 691.3168
  L 453.9881 687.9038
  L 451.6900 684.7092
  L 449.1016 681.7639
  L 446.2477 679.0961
  L 443.1559 676.7317
  L 439.8558 674.6934
  L 436.3795 673.0007
  L 432.7601 671.6701
  L 429.0328 670.7143
  L 425.2333 670.1425
  L 421.3982 669.9602
  L 421.3982 669.9602
  L 417.5645 670.1693
  L 413.7690 670.7676
  L 410.0484 671.7494
  L 406.4385 673.1053
  L 402.9740 674.8221
  L 399.6883 676.8835
  L 396.6131 679.2694
  L 393.7779 681.9570
  L 391.2100 684.9203
  L 388.9343 688.1309
  L 386.9726 691.5577
  L 385.3438 695.1678
  L 384.0636 698.9265
  L 383.1442 702.7975
  L 382.5947 706.7435
  L 382.4202 710.7266
  L 382.6225 714.7083
  L 383.1996 718.6504
  L 384.1459 722.5149
  L 385.4523 726.2645
  L 387.1063 729.8632
  L 389.0919 733.2762
  L 391.3900 736.4708
  L 393.9784 739.4161
  L 396.8323 742.0839
  L 399.9241 744.4483
  L 403.2242 746.4866
  L 406.7005 748.1793
  L 410.3199 749.5099
  L 414.0472 750.4657
  L 417.8467 751.0375
  L 421.6818 751.2198
  Z"
/>
<path fill="#252527" d="
  M 741.06 734.70
  L 742.39 733.05
  L 742.90 732.59
  L 743.33 732.42
  L 743.76 732.56
  L 753.20 739.04
  L 753.37 739.27
  L 753.30 739.55
  L 749.55 744.89
  L 745.41 749.60
  L 740.89 753.67
  L 735.98 757.11
  L 735.98 757.11
  L 735.98 757.11
  L 735.98 757.11
  L 733.01 758.78
  L 729.91 760.25
  L 726.69 761.51
  L 723.35 762.57
  L 720.18 763.34
  L 717.00 763.89
  L 713.69 764.24
  L 710.39 764.36
  L 707.06 764.26
  L 703.75 763.95
  L 700.47 763.42
  L 697.23 762.68
  L 694.00 761.72
  L 690.84 760.56
  L 687.75 759.20
  L 684.75 757.65
  L 681.90 755.93
  L 679.16 754.03
  L 676.53 751.95
  L 674.04 749.71
  L 670.04 745.38
  L 666.50 740.53
  L 663.43 735.15
  L 660.82 729.26
  L 659.72 725.76
  L 658.84 722.22
  L 658.19 718.65
  L 657.76 715.08
  L 657.56 711.50
  L 657.57 707.92
  L 657.81 704.38
  L 658.27 700.86
  L 658.95 697.42
  L 659.85 694.04
  L 660.97 690.73
  L 662.31 687.50
  L 663.85 684.38
  L 665.61 681.38
  L 667.52 678.56
  L 669.64 675.87
  L 672.68 672.58
  L 676.05 669.53
  L 680.76 666.01
  L 685.62 663.08
  L 690.66 660.73
  L 695.85 658.98
  L 695.85 658.98
  L 695.85 658.98
  L 695.85 658.98
  L 700.94 657.85
  L 706.18 657.26
  L 711.56 657.20
  L 717.09 657.67
  L 722.12 658.56
  L 726.90 659.88
  L 731.44 661.63
  L 735.74 663.80
  L 735.74 663.80
  L 735.74 663.80
  L 740.05 666.59
  L 744.09 669.86
  L 747.84 673.62
  L 751.32 677.87
  L 751.54 678.74
  L 751.10 679.52
  L 742.02 686.60
  L 741.59 686.75
  L 741.23 686.50
  L 739.15 683.96
  L 736.96 681.62
  L 734.65 679.47
  L 732.23 677.53
  L 729.76 675.85
  L 727.19 674.37
  L 724.51 673.11
  L 721.73 672.08
  L 718.16 671.12
  L 714.44 670.54
  L 710.67 670.33
  L 706.76 670.49
  L 703.77 670.87
  L 700.89 671.48
  L 698.11 672.32
  L 695.43 673.39
  L 695.43 673.39
  L 692.50 674.89
  L 689.71 676.68
  L 685.81 679.79
  L 682.44 683.17
  L 679.52 686.88
  L 677.13 690.84
  L 675.69 693.94
  L 674.53 697.17
  L 673.65 700.49
  L 673.06 703.92
  L 672.75 707.50
  L 672.72 711.15
  L 672.97 714.88
  L 673.50 718.68
  L 674.19 721.83
  L 675.13 724.90
  L 676.35 727.97
  L 677.80 730.91
  L 679.50 733.73
  L 681.41 736.39
  L 683.52 738.89
  L 685.82 741.20
  L 688.26 743.29
  L 690.87 745.18
  L 693.62 746.83
  L 696.50 748.25
  L 699.44 749.40
  L 702.49 750.28
  L 705.52 750.88
  L 708.63 751.20
  L 711.11 751.26
  L 715.17 750.98
  L 719.11 750.24
  L 719.11 750.24
  L 719.11 750.24
  L 722.54 749.18
  L 725.89 747.75
  L 729.13 745.96
  L 732.29 743.79
  L 734.53 741.94
  L 736.74 739.80
  L 738.92 737.39
  L 741.06 734.70
  Z"
/>
<path fill="#252527" d="
  M 194.60 724.74
  L 194.00 724.94
  L 193.80 725.54
  L 193.80 761.72
  L 193.66 762.16
  L 193.22 762.30
  L 179.89 762.30
  L 179.68 762.08
  L 179.68 659.03
  L 179.73 658.84
  L 180.08 658.63
  L 216.46 658.64
  L 224.90 658.94
  L 228.21 659.33
  L 230.93 659.90
  L 234.30 660.99
  L 236.94 662.12
  L 239.49 663.48
  L 241.96 665.06
  L 244.34 666.87
  L 246.33 668.66
  L 248.12 670.59
  L 250.41 673.67
  L 252.27 676.99
  L 253.73 680.59
  L 254.73 684.35
  L 255.30 688.30
  L 255.40 692.31
  L 255.05 696.35
  L 254.25 700.35
  L 253.19 703.68
  L 251.78 706.79
  L 249.39 710.66
  L 246.47 714.10
  L 243.00 717.17
  L 239.12 719.75
  L 234.77 721.86
  L 230.13 723.41
  L 225.28 724.38
  L 220.29 724.74
  L 194.60 724.74
  Z
  M 193.74 672.06
  L 193.80 711.30
  L 193.98 711.72
  L 194.41 711.90
  L 220.75 711.85
  L 224.60 711.47
  L 228.30 710.37
  L 231.72 708.57
  L 234.71 706.15
  L 237.16 703.21
  L 238.98 699.86
  L 240.10 696.22
  L 240.47 692.44
  L 240.47 692.44
  L 240.47 692.44
  L 240.47 690.76
  L 240.47 690.76
  L 240.08 686.98
  L 238.95 683.35
  L 237.12 680.00
  L 234.66 677.07
  L 231.66 674.66
  L 228.24 672.88
  L 224.53 671.78
  L 220.67 671.41
  L 194.33 671.46
  L 193.91 671.64
  L 193.74 672.06
  Z"
/>
<path fill="#252527" d="
  M 292.78 658.64
  L 308.36 658.60
  L 322.00 658.63
  L 324.33 658.81
  L 326.97 659.34
  L 329.92 660.21
  L 333.17 661.43
  L 337.78 663.73
  L 341.84 666.62
  L 343.69 668.31
  L 345.37 670.12
  L 346.89 672.06
  L 348.24 674.11
  L 350.17 677.94
  L 351.53 682.06
  L 352.29 686.33
  L 352.47 690.80
  L 352.04 695.60
  L 351.04 700.01
  L 349.44 704.12
  L 347.30 707.81
  L 345.62 709.98
  L 343.73 711.98
  L 341.63 713.81
  L 339.33 715.46
  L 336.79 716.95
  L 334.06 718.27
  L 331.13 719.40
  L 328.03 720.35
  L 327.74 720.55
  L 327.83 720.88
  L 355.54 761.74
  L 355.60 762.15
  L 355.42 762.41
  L 355.12 762.50
  L 351.94 762.36
  L 339.59 762.30
  L 339.26 762.12
  L 312.65 722.90
  L 311.93 722.23
  L 310.98 722.01
  L 288.72 722.01
  L 288.29 722.19
  L 288.11 722.63
  L 288.11 761.85
  L 288.00 762.19
  L 287.66 762.30
  L 274.01 762.30
  L 273.78 762.22
  L 273.63 761.92
  L 273.63 659.24
  L 273.81 658.82
  L 274.24 658.64
  L 292.78 658.64
  Z
  M 287.95 672.20
  L 287.89 708.70
  L 288.07 709.14
  L 288.51 709.32
  L 318.31 709.37
  L 322.04 709.03
  L 325.63 708.01
  L 328.93 706.34
  L 331.84 704.09
  L 334.22 701.36
  L 335.99 698.23
  L 337.09 694.84
  L 337.46 691.31
  L 337.46 689.75
  L 337.46 689.75
  L 337.10 686.22
  L 336.02 682.83
  L 334.26 679.70
  L 331.88 676.95
  L 328.99 674.70
  L 325.69 673.02
  L 322.10 671.98
  L 318.37 671.63
  L 288.57 671.58
  L 288.13 671.76
  L 287.95 672.20
  Z"
/>
<path fill="#252527" d="
  M 506.74 749.88
  L 509.33 750.69
  L 511.94 751.17
  L 514.52 751.32
  L 517.05 751.13
  L 519.47 750.61
  L 521.76 749.75
  L 523.79 748.61
  L 525.63 747.15
  L 527.14 745.52
  L 528.44 743.62
  L 529.44 741.55
  L 530.20 739.22
  L 530.85 735.97
  L 531.16 732.70
  L 531.16 732.70
  L 531.17 730.51
  L 530.96 707.28
  L 530.96 659.01
  L 531.10 658.66
  L 531.45 658.52
  L 544.96 658.52
  L 545.28 658.65
  L 545.41 658.98
  L 545.56 732.75
  L 545.42 736.70
  L 544.84 740.60
  L 543.87 744.31
  L 542.47 747.87
  L 540.75 751.05
  L 538.64 753.98
  L 536.25 756.52
  L 533.50 758.74
  L 532.15 759.61
  L 528.39 761.57
  L 524.47 763.02
  L 524.47 763.02
  L 520.33 763.96
  L 516.04 764.37
  L 511.63 764.28
  L 507.44 763.72
  L 503.47 762.69
  L 499.73 761.19
  L 499.73 761.19
  L 496.02 759.09
  L 492.55 756.47
  L 489.34 753.31
  L 486.38 749.63
  L 486.38 749.62
  L 486.26 749.13
  L 486.53 748.70
  L 496.53 741.45
  L 496.54 741.44
  L 496.90 741.38
  L 497.20 741.59
  L 499.09 744.15
  L 501.52 746.57
  L 504.18 748.57
  L 506.74 749.88
  Z"
/>
<path fill="#252527" d="
  M 634.73 749.74
  L 642.91 749.87
  L 643.35 750.02
  L 643.49 750.46
  L 643.49 762.07
  L 643.35 762.42
  L 643.00 762.57
  L 607.93 762.57
  L 572.99 762.53
  L 572.58 762.36
  L 572.41 761.95
  L 572.41 659.71
  L 572.69 658.87
  L 573.53 658.59
  L 642.12 658.59
  L 642.47 658.74
  L 642.62 659.09
  L 642.62 670.55
  L 642.34 671.36
  L 641.65 671.59
  L 587.34 671.59
  L 586.95 671.72
  L 586.81 672.13
  L 586.81 702.69
  L 587.00 703.15
  L 587.46 703.34
  L 636.52 703.34
  L 636.87 703.48
  L 637.01 703.83
  L 637.01 715.86
  L 636.76 716.11
  L 586.96 715.83
  L 586.81 715.88
  L 586.76 716.03
  L 586.76 749.34
  L 586.88 749.64
  L 587.18 749.76
  L 634.73 749.74
  Z"
/>
<path fill="#252527" d="
  M 814.79 658.68
  L 846.79 658.54
  L 847.07 658.65
  L 847.19 658.93
  L 847.19 658.93
  L 847.19 671.04
  L 847.06 671.37
  L 846.73 671.50
  L 812.16 671.50
  L 811.86 671.60
  L 811.76 671.90
  L 811.76 762.04
  L 811.66 762.29
  L 811.41 762.40
  L 798.26 762.40
  L 797.93 762.26
  L 797.79 761.93
  L 797.79 672.24
  L 797.63 671.84
  L 797.24 671.68
  L 797.24 671.68
  L 797.24 671.68
  L 790.07 671.55
  L 764.08 671.70
  L 764.08 671.70
  L 763.57 671.49
  L 763.36 670.98
  L 763.36 659.16
  L 763.55 658.71
  L 764.00 658.52
  L 764.00 658.52
  L 814.79 658.68
  Z"
/>
<ellipse fill="#f8f7f5" cx="0.00" cy="0.00" transform="translate(421.54,710.59) rotate(89.8)" rx="40.63" ry="39.12"/>
<path fill="#e9e8e6" d="
  M 193.74 672.06
  L 193.91 671.64
  L 194.33 671.46
  L 220.67 671.41
  L 224.53 671.78
  L 228.24 672.88
  L 231.66 674.66
  L 234.66 677.07
  L 237.12 680.00
  L 238.95 683.35
  L 240.08 686.98
  L 240.47 690.76
  L 240.47 692.44
  L 240.10 696.22
  L 238.98 699.86
  L 237.16 703.21
  L 234.71 706.15
  L 231.72 708.57
  L 228.30 710.37
  L 224.60 711.47
  L 220.75 711.85
  L 194.41 711.90
  L 193.98 711.72
  L 193.80 711.30
  L 193.74 672.06
  Z"
/>
<path fill="#f8f7f5" d="
  M 287.95 672.20
  L 288.01 671.93
  L 288.57 671.58
  L 318.37 671.63
  L 322.10 671.98
  L 325.69 673.02
  L 328.99 674.70
  L 331.88 676.95
  L 334.26 679.70
  L 336.02 682.83
  L 337.10 686.22
  L 337.46 689.75
  L 337.46 689.75
  L 337.46 691.31
  L 337.09 694.84
  L 335.99 698.23
  L 334.22 701.36
  L 331.84 704.09
  L 328.93 706.34
  L 325.63 708.01
  L 322.04 709.03
  L 318.31 709.37
  L 288.51 709.32
  L 288.07 709.14
  L 287.89 708.70
  L 287.95 672.20
  Z"
/>
<path fill="#252527" d="
  M 218.72 868.01
  L 214.42 868.05
  L 210.24 867.70
  L 206.10 866.96
  L 202.13 865.84
  L 198.34 864.34
  L 194.77 862.48
  L 191.42 860.27
  L 188.33 857.72
  L 186.30 855.71
  L 184.42 853.53
  L 182.69 851.20
  L 181.12 848.71
  L 179.73 846.09
  L 178.52 843.32
  L 177.52 840.51
  L 176.69 837.57
  L 175.90 832.22
  L 175.70 826.92
  L 176.09 821.73
  L 177.06 816.69
  L 178.59 811.92
  L 180.70 807.40
  L 183.30 803.28
  L 186.45 799.52
  L 189.37 796.78
  L 192.64 794.32
  L 196.16 792.23
  L 200.00 790.46
  L 202.99 789.39
  L 206.06 788.53
  L 209.17 787.89
  L 212.32 787.48
  L 215.49 787.28
  L 218.66 787.31
  L 221.82 787.56
  L 224.94 788.04
  L 227.97 788.74
  L 230.93 789.65
  L 233.72 790.75
  L 236.42 792.06
  L 239.00 793.57
  L 241.47 795.29
  L 243.72 797.15
  L 245.84 799.21
  L 248.19 801.95
  L 248.34 802.52
  L 248.05 803.04
  L 240.70 808.77
  L 240.02 808.96
  L 239.42 808.60
  L 239.42 808.60
  L 239.40 808.57
  L 236.57 805.10
  L 233.18 802.16
  L 230.42 800.43
  L 227.50 799.07
  L 224.33 798.06
  L 221.05 797.42
  L 217.62 797.16
  L 214.13 797.27
  L 210.62 797.76
  L 207.13 798.62
  L 203.31 799.99
  L 199.88 801.73
  L 196.83 803.83
  L 194.16 806.28
  L 194.16 806.28
  L 192.11 808.78
  L 190.36 811.56
  L 188.92 814.63
  L 187.79 817.99
  L 186.84 822.34
  L 186.41 826.67
  L 186.49 830.92
  L 187.10 835.04
  L 188.21 838.99
  L 189.82 842.72
  L 191.86 846.09
  L 194.38 849.17
  L 196.97 851.59
  L 199.92 853.71
  L 203.12 855.45
  L 206.65 856.85
  L 210.32 857.79
  L 214.29 858.25
  L 218.30 858.21
  L 222.52 857.67
  L 226.81 856.63
  L 230.97 855.14
  L 235.02 853.21
  L 238.79 850.92
  L 239.36 850.29
  L 239.56 849.47
  L 239.56 836.35
  L 239.40 835.98
  L 239.03 835.82
  L 220.13 835.82
  L 220.13 835.82
  L 219.81 835.49
  L 219.81 827.07
  L 219.90 826.80
  L 220.15 826.72
  L 249.27 826.72
  L 249.27 826.72
  L 249.69 826.90
  L 249.87 827.33
  L 249.71 853.24
  L 249.54 854.45
  L 249.07 855.46
  L 248.28 856.29
  L 244.82 858.74
  L 241.25 860.91
  L 237.58 862.80
  L 233.80 864.42
  L 233.80 864.42
  L 230.17 865.68
  L 226.45 866.70
  L 222.63 867.48
  L 218.72 868.01
  Z"
/>
<path fill="#252527" d="
  M 344.5217 830.0193
  L 344.0957 833.9661
  L 343.2779 837.8521
  L 342.0764 841.6399
  L 340.5028 845.2929
  L 338.5721 848.7759
  L 336.3029 852.0556
  L 333.7172 855.1002
  L 330.8398 857.8804
  L 327.6984 860.3695
  L 324.3233 862.5435
  L 320.7470 864.3815
  L 317.0039 865.8657
  L 313.1301 866.9818
  L 309.1629 867.7192
  L 305.1404 868.0707
  L 301.1015 868.0329
  L 297.0851 867.6062
  L 293.1297 866.7947
  L 289.2735 865.6063
  L 285.5536 864.0523
  L 282.0060 862.1477
  L 278.6646 859.9108
  L 275.5617 857.3633
  L 272.7273 854.5297
  L 270.1885 851.4371
  L 267.9698 848.1155
  L 266.0927 844.5968
  L 264.5751 840.9149
  L 263.4317 837.1052
  L 262.6736 833.2045
  L 262.3079 829.2503
  L 262.3383 825.2807
  L 262.3383 825.2807
  L 262.7643 821.3339
  L 263.5821 817.4479
  L 264.7836 813.6601
  L 266.3572 810.0071
  L 268.2879 806.5241
  L 270.5571 803.2444
  L 273.1428 800.1998
  L 276.0202 797.4196
  L 279.1616 794.9305
  L 282.5367 792.7565
  L 286.1130 790.9185
  L 289.8561 789.4343
  L 293.7299 788.3182
  L 297.6971 787.5808
  L 301.7196 787.2293
  L 305.7585 787.2671
  L 309.7749 787.6938
  L 313.7303 788.5053
  L 317.5865 789.6937
  L 321.3064 791.2477
  L 324.8540 793.1523
  L 328.1954 795.3892
  L 331.2983 797.9367
  L 334.1327 800.7703
  L 336.6715 803.8629
  L 338.8902 807.1845
  L 340.7673 810.7032
  L 342.2849 814.3851
  L 343.4283 818.1948
  L 344.1864 822.0955
  L 344.5521 826.0497
  L 344.5217 830.0193
  Z
  M 333.90 827.75
  L 333.75 824.76
  L 333.31 821.79
  L 332.59 818.89
  L 331.58 816.07
  L 330.30 813.36
  L 328.75 810.79
  L 326.97 808.38
  L 324.96 806.16
  L 322.74 804.15
  L 320.33 802.37
  L 317.76 800.82
  L 315.05 799.54
  L 312.23 798.53
  L 309.33 797.81
  L 306.36 797.37
  L 303.37 797.22
  L 300.38 797.37
  L 297.41 797.81
  L 294.51 798.53
  L 291.69 799.54
  L 288.98 800.82
  L 286.41 802.37
  L 284.00 804.15
  L 281.78 806.16
  L 279.77 808.38
  L 277.99 810.79
  L 276.44 813.36
  L 275.16 816.07
  L 274.15 818.89
  L 273.43 821.79
  L 272.99 824.76
  L 272.84 827.75
  L 272.99 830.74
  L 273.43 833.71
  L 274.15 836.61
  L 275.16 839.43
  L 276.44 842.14
  L 277.99 844.71
  L 279.77 847.12
  L 281.78 849.34
  L 284.00 851.35
  L 286.41 853.13
  L 288.98 854.68
  L 291.69 855.96
  L 294.51 856.97
  L 297.41 857.69
  L 300.38 858.13
  L 303.37 858.28
  L 306.36 858.13
  L 309.33 857.69
  L 312.23 856.97
  L 315.05 855.96
  L 317.76 854.68
  L 320.33 853.13
  L 322.74 851.35
  L 324.96 849.34
  L 326.97 847.12
  L 328.75 844.71
  L 330.30 842.14
  L 331.58 839.43
  L 332.59 836.61
  L 333.31 833.71
  L 333.75 830.74
  L 333.90 827.75
  Z"
/>
<path fill="#252527" d="
  M 410.62 800.14
  L 410.58 789.18
  L 410.76 788.74
  L 411.20 788.55
  L 411.20 788.55
  L 420.47 788.55
  L 420.95 788.69
  L 421.20 789.12
  L 421.23 790.72
  L 421.25 838.25
  L 421.07 841.96
  L 420.53 845.57
  L 419.63 849.04
  L 418.38 852.33
  L 416.82 855.33
  L 414.92 858.08
  L 412.75 860.50
  L 410.26 862.62
  L 408.07 864.07
  L 405.68 865.30
  L 403.19 866.27
  L 400.52 867.01
  L 395.50 867.87
  L 390.63 868.19
  L 385.90 867.96
  L 381.31 867.20
  L 377.42 866.06
  L 373.91 864.54
  L 370.80 862.62
  L 368.07 860.31
  L 365.58 857.40
  L 363.54 854.05
  L 361.93 850.25
  L 360.77 846.01
  L 360.02 840.71
  L 359.80 834.58
  L 359.89 789.19
  L 360.06 788.68
  L 360.55 788.52
  L 369.95 788.52
  L 369.95 788.52
  L 370.41 788.72
  L 370.60 789.18
  L 370.48 817.89
  L 370.61 840.72
  L 370.76 842.87
  L 371.15 844.97
  L 371.76 846.92
  L 372.59 848.83
  L 373.65 850.67
  L 374.94 852.46
  L 376.50 854.09
  L 378.32 855.44
  L 380.42 856.57
  L 382.88 857.49
  L 385.54 858.14
  L 388.44 858.52
  L 391.36 858.59
  L 394.13 858.36
  L 397.70 857.64
  L 400.83 856.50
  L 403.52 854.96
  L 405.79 853.00
  L 405.79 853.00
  L 405.79 853.00
  L 407.57 850.70
  L 408.95 848.01
  L 409.67 845.50
  L 410.18 841.95
  L 410.50 837.38
  L 410.62 831.77
  L 410.62 800.14
  Z"
/>
<path fill="#252527" d="
  M 499.24 804.35
  L 499.98 808.55
  L 500.14 812.52
  L 499.70 816.26
  L 498.68 819.78
  L 498.68 819.78
  L 497.53 822.24
  L 496.06 824.57
  L 494.27 826.78
  L 492.15 828.86
  L 490.05 830.48
  L 487.55 831.97
  L 484.64 833.34
  L 481.33 834.58
  L 480.99 834.84
  L 481.10 835.25
  L 502.03 866.11
  L 502.09 866.57
  L 501.76 866.90
  L 501.61 866.92
  L 490.15 866.92
  L 489.79 866.72
  L 470.70 836.36
  L 470.07 835.77
  L 469.22 835.55
  L 452.08 835.55
  L 451.76 835.66
  L 451.66 835.96
  L 451.66 866.87
  L 451.60 867.08
  L 451.29 867.24
  L 441.94 867.24
  L 441.56 867.08
  L 441.40 866.71
  L 441.40 866.71
  L 441.23 808.02
  L 441.16 788.98
  L 441.29 788.60
  L 441.67 788.46
  L 456.86 788.39
  L 472.00 788.52
  L 477.14 788.71
  L 480.81 789.10
  L 484.36 789.91
  L 487.56 791.09
  L 490.44 792.65
  L 492.98 794.58
  L 492.98 794.58
  L 492.98 794.58
  L 494.93 796.59
  L 496.63 798.89
  L 498.06 801.47
  L 499.24 804.35
  Z
  M 451.62 798.67
  L 451.66 825.81
  L 451.90 826.10
  L 451.95 826.10
  L 474.95 826.06
  L 477.77 825.81
  L 480.47 825.08
  L 482.97 823.90
  L 485.15 822.32
  L 486.94 820.39
  L 488.27 818.19
  L 489.09 815.80
  L 489.36 813.32
  L 489.36 813.32
  L 489.36 813.32
  L 489.36 811.04
  L 489.36 811.04
  L 489.08 808.56
  L 488.25 806.17
  L 486.91 803.97
  L 485.12 802.05
  L 482.93 800.47
  L 480.43 799.30
  L 477.72 798.58
  L 474.91 798.34
  L 451.91 798.38
  L 451.62 798.67
  Z"
/>
<path fill="#252527" d="
  M 533.79 803.73
  L 553.98 839.25
  L 554.38 839.61
  L 554.78 839.25
  L 582.39 789.05
  L 582.78 788.66
  L 583.31 788.51
  L 593.08 788.51
  L 593.08 788.51
  L 593.45 788.67
  L 593.60 789.04
  L 593.60 866.52
  L 593.44 867.00
  L 592.96 867.16
  L 583.97 867.16
  L 583.55 867.02
  L 583.41 866.61
  L 583.41 808.51
  L 583.20 807.63
  L 582.59 808.29
  L 557.51 851.74
  L 557.21 852.04
  L 556.84 852.13
  L 551.64 852.13
  L 551.17 852.01
  L 550.81 851.65
  L 525.58 808.39
  L 525.31 808.11
  L 525.22 808.48
  L 525.01 866.72
  L 524.89 867.07
  L 524.53 867.19
  L 515.03 867.19
  L 514.68 867.07
  L 514.56 866.72
  L 514.75 799.98
  L 514.74 789.04
  L 514.90 788.67
  L 515.27 788.51
  L 524.55 788.51
  L 525.10 788.66
  L 525.51 789.07
  L 533.79 803.73
  Z"
/>
<path fill="#252527" d="
  M 615.63 867.02
  L 605.30 867.02
  L 605.01 866.87
  L 604.98 866.55
  L 638.50 788.72
  L 638.56 788.62
  L 638.81 788.51
  L 648.48 788.51
  L 648.62 788.54
  L 648.79 788.71
  L 682.57 866.68
  L 682.57 866.96
  L 682.26 867.16
  L 671.67 867.16
  L 671.54 867.13
  L 671.36 866.96
  L 662.70 846.95
  L 662.39 846.75
  L 624.79 846.75
  L 624.48 846.96
  L 615.94 866.81
  L 615.86 866.92
  L 615.63 867.02
  Z
  M 628.22 836.93
  L 628.18 837.19
  L 628.35 837.52
  L 628.70 837.66
  L 658.29 837.76
  L 658.64 837.63
  L 658.82 837.29
  L 658.78 837.03
  L 644.11 801.18
  L 643.66 800.85
  L 643.17 801.11
  L 643.13 801.18
  L 628.22 836.93
  Z"
/>
<path fill="#252527" d="
  M 749.58 788.49
  L 759.03 788.49
  L 759.03 788.49
  L 759.36 788.82
  L 759.36 866.43
  L 759.32 866.59
  L 759.03 866.76
  L 751.42 866.76
  L 751.16 866.63
  L 704.18 806.44
  L 703.91 806.31
  L 703.65 806.44
  L 703.59 806.64
  L 703.59 866.87
  L 703.26 867.20
  L 693.86 867.20
  L 693.53 866.87
  L 693.53 788.75
  L 693.86 788.42
  L 702.78 788.42
  L 702.87 788.43
  L 703.04 788.55
  L 748.66 846.98
  L 748.87 847.11
  L 749.14 847.03
  L 749.25 846.78
  L 749.25 788.82
  L 749.58 788.49
  Z"
/>
<path fill="#252527" d="
  M 849.71 816.07
  L 850.82 821.40
  L 851.29 826.65
  L 851.12 831.87
  L 850.33 836.91
  L 848.92 841.78
  L 846.91 846.36
  L 844.34 850.61
  L 841.21 854.47
  L 838.82 856.84
  L 836.19 858.99
  L 833.43 860.87
  L 830.46 862.52
  L 827.32 863.93
  L 823.99 865.08
  L 820.58 865.95
  L 817.01 866.56
  L 810.38 867.04
  L 800.60 867.16
  L 780.24 866.98
  L 779.89 866.84
  L 779.75 866.49
  L 779.75 789.01
  L 780.06 788.70
  L 809.53 788.45
  L 813.95 788.61
  L 818.22 789.12
  L 822.33 789.98
  L 826.25 791.18
  L 829.95 792.72
  L 833.43 794.61
  L 836.60 796.78
  L 839.52 799.27
  L 842.76 802.79
  L 845.57 806.80
  L 847.87 811.20
  L 849.71 816.07
  Z
  M 790.13 799.09
  L 790.43 856.71
  L 790.45 856.84
  L 790.65 857.15
  L 790.99 857.27
  L 811.86 857.16
  L 814.70 857.01
  L 817.50 856.58
  L 820.26 855.89
  L 822.92 854.93
  L 825.48 853.73
  L 827.91 852.28
  L 830.18 850.60
  L 832.28 848.72
  L 834.17 846.64
  L 835.85 844.38
  L 837.30 841.98
  L 838.50 839.45
  L 839.44 836.82
  L 840.12 834.10
  L 840.52 831.34
  L 840.64 828.55
  L 840.64 828.55
  L 840.64 828.55
  L 840.63 826.73
  L 840.48 823.94
  L 840.05 821.18
  L 839.35 818.47
  L 838.38 815.85
  L 837.15 813.33
  L 835.68 810.94
  L 833.97 808.71
  L 832.06 806.65
  L 829.94 804.78
  L 827.65 803.13
  L 825.21 801.71
  L 822.64 800.53
  L 819.96 799.60
  L 817.20 798.94
  L 814.39 798.54
  L 811.56 798.42
  L 790.69 798.53
  L 790.39 798.61
  L 790.13 799.09
  Z"
/>
<circle fill="#e9e8e6" cx="303.37" cy="827.75" r="30.53"/>
<path fill="#e9e8e6" d="
  M 451.62 798.67
  L 451.65 798.53
  L 451.91 798.38
  L 474.91 798.34
  L 477.72 798.58
  L 480.43 799.30
  L 482.93 800.47
  L 485.12 802.05
  L 486.91 803.97
  L 488.25 806.17
  L 489.08 808.56
  L 489.36 811.04
  L 489.36 813.32
  L 489.09 815.80
  L 488.27 818.19
  L 486.94 820.39
  L 485.15 822.32
  L 482.97 823.90
  L 480.47 825.08
  L 477.77 825.81
  L 474.95 826.06
  L 451.95 826.10
  L 451.78 826.04
  L 451.66 825.81
  L 451.62 798.67
  Z"
/>
<path fill="#e9e8e6" d="
  M 790.13 799.09
  L 790.29 798.70
  L 790.69 798.53
  L 811.56 798.42
  L 814.39 798.54
  L 817.20 798.94
  L 819.96 799.60
  L 822.64 800.53
  L 825.21 801.71
  L 827.65 803.13
  L 829.94 804.78
  L 832.06 806.65
  L 833.97 808.71
  L 835.68 810.94
  L 837.15 813.33
  L 838.38 815.85
  L 839.35 818.47
  L 840.05 821.18
  L 840.48 823.94
  L 840.63 826.73
  L 840.63 826.73
  L 840.63 826.73
  L 840.64 828.55
  L 840.52 831.34
  L 840.12 834.10
  L 839.44 836.82
  L 838.50 839.45
  L 837.30 841.98
  L 835.85 844.38
  L 834.17 846.64
  L 832.28 848.72
  L 830.18 850.60
  L 827.91 852.28
  L 825.48 853.73
  L 822.92 854.93
  L 820.26 855.89
  L 817.50 856.58
  L 814.70 857.01
  L 811.86 857.16
  L 790.99 857.27
  L 790.60 857.11
  L 790.43 856.71
  L 790.13 799.09
  Z"
/>
<path fill="#e9e8e6" d="
  M 628.22 836.93
  L 643.13 801.18
  L 643.53 800.86
  L 643.88 800.92
  L 644.11 801.18
  L 658.78 837.03
  L 658.80 837.38
  L 658.61 837.66
  L 658.29 837.76
  L 628.70 837.66
  L 628.26 837.42
  L 628.22 836.93
  Z"
/>
</svg>
